if (_typeface_js && _typeface_js.loadFace) _typeface_js.loadFace({"glyphs":{"0":{"ha":817,"x_min":0,"x_max":0,"o":"m 422 1042 b 64 500 188 1042 64 824 b 403 -8 64 153 207 -8 b 751 542 661 -8 751 274 b 422 1042 751 797 669 1042 z m 238 504 b 438 972 238 744 307 972 b 607 561 517 972 607 889 b 419 96 607 317 557 96 b 238 504 283 96 238 310 z "},"1":{"ha":428,"x_min":0,"x_max":0,"o":"m 321 1039 b 19 931 189 944 90 931 l 15 858 l 171 858 l 171 0 l 321 0 z "},"2":{"ha":701,"x_min":0,"x_max":0,"o":"m 204 133 b 154 128 186 133 169 132 b 613 779 178 335 613 440 b 328 1040 613 900 557 1040 b 63 849 163 1040 63 968 b 160 710 63 781 94 710 b 231 744 182 710 208 718 b 183 849 193 769 183 819 b 315 972 183 914 229 972 b 450 800 410 972 450 901 b 50 81 450 479 50 351 b 68 -3 50 29 63 6 b 206 32 114 22 160 32 b 515 -12 271 32 408 -12 b 663 107 597 -12 663 14 b 642 204 663 139 654 172 b 471 108 603 139 572 108 b 204 133 379 108 283 133 z "},"3":{"ha":740,"x_min":0,"x_max":0,"o":"m 272 357 b 168 424 251 414 201 424 b 42 258 89 424 42 364 b 339 -8 42 25 244 -8 b 700 311 538 -8 700 142 b 478 579 700 431 635 517 b 632 822 571 624 632 725 b 351 1040 632 972 489 1040 b 100 851 221 1040 100 979 b 208 715 100 769 150 715 b 293 758 238 715 268 729 b 222 869 244 792 222 831 b 343 971 222 922 264 971 b 493 821 439 971 493 900 b 253 581 493 726 414 618 b 525 301 438 563 525 432 b 335 89 525 200 471 89 b 171 242 264 89 171 119 b 272 357 171 301 193 353 z "},"4":{"ha":661,"x_min":0,"x_max":0,"o":"m 372 1021 l 372 485 l 118 485 b 275 856 160 601 275 694 b 135 1039 275 964 222 1038 b 161 868 150 1004 161 925 b 14 403 161 674 31 542 l 372 403 l 372 0 l 522 0 l 522 403 l 635 403 l 638 485 l 522 485 l 522 1042 z "},"5":{"ha":701,"x_min":0,"x_max":0,"o":"m 583 1040 b 386 994 511 1006 460 994 b 179 1017 318 994 265 1004 l 82 479 b 282 543 124 510 200 543 b 497 317 410 543 497 463 b 322 81 497 207 447 81 b 165 225 242 81 165 133 b 258 319 165 282 196 314 b 156 390 236 368 196 390 b 44 235 93 390 44 339 b 332 -8 44 47 203 -8 b 654 326 553 -8 654 153 b 361 646 654 492 563 646 b 192 603 304 646 250 633 l 249 890 b 471 856 308 881 396 856 b 601 963 567 856 601 900 b 583 1040 601 990 594 1013 z "},"6":{"ha":756,"x_min":0,"x_max":0,"o":"m 292 458 b 425 539 329 517 371 539 b 586 336 532 539 586 453 b 400 97 586 233 543 97 b 207 436 249 97 207 250 b 456 978 207 708 306 978 b 561 882 518 978 561 932 b 547 833 561 864 556 844 b 582 828 560 831 569 828 b 654 910 633 828 654 875 b 450 1042 654 976 576 1042 b 60 449 188 1042 60 760 b 388 -8 60 118 201 -8 b 711 335 607 -8 711 167 b 444 629 711 506 599 629 b 272 508 336 629 272 567 b 292 458 272 490 279 474 z "},"7":{"ha":622,"x_min":0,"x_max":0,"o":"m 617 1017 b 508 1006 578 1008 540 1006 b 158 1040 393 1006 271 1040 b 19 950 83 1040 19 1025 b 133 817 19 881 72 818 b 131 840 131 825 131 833 b 276 924 131 911 219 924 b 460 897 340 924 415 908 b 132 210 458 772 132 499 b 274 -12 132 119 164 -12 b 356 10 299 -12 326 -6 b 307 226 338 49 307 113 b 618 1006 307 590 618 871 b 617 1017 618 1008 618 1014 z "},"8":{"ha":735,"x_min":0,"x_max":0,"o":"m 364 92 b 196 296 256 92 196 206 b 357 524 196 393 264 492 b 524 293 468 467 524 392 b 364 92 524 193 465 92 z m 363 -8 b 683 306 565 -8 683 136 b 485 579 683 422 628 532 b 626 815 582 635 626 732 b 365 1042 626 940 526 1042 b 104 810 194 1042 104 928 b 253 579 104 724 151 636 b 53 299 126 536 53 439 b 363 -8 53 119 172 -8 z m 364 625 b 238 825 275 675 238 753 b 371 978 238 908 289 978 b 496 842 451 978 496 913 b 364 625 496 767 447 675 z "},"9":{"ha":754,"x_min":0,"x_max":0,"o":"m 463 603 b 329 522 425 544 383 522 b 168 711 222 522 168 603 b 354 960 168 808 217 960 b 547 597 506 960 547 783 b 300 94 547 325 450 94 b 194 190 238 94 194 140 b 208 239 194 208 200 228 b 174 244 196 242 186 244 b 101 163 122 244 101 197 b 303 -8 101 96 176 -8 b 694 585 565 -8 694 274 b 365 1042 694 915 551 1042 b 43 713 150 1042 43 874 b 310 432 43 550 156 432 b 482 553 418 432 482 494 b 463 603 482 569 475 588 z "},"A":{"ha":838,"x_min":0,"x_max":0,"o":"m 774 0 l 774 1022 b 663 1042 738 1036 690 1042 b 269 628 500 1042 363 851 b 204 631 247 629 225 631 b -60 488 53 631 -60 576 b 35 397 -60 421 -11 397 b 92 442 63 397 92 408 b 56 488 92 464 82 479 b 54 496 54 490 54 493 b 247 574 54 542 140 571 b 140 71 179 394 140 201 b 338 -158 140 -133 254 -158 b 289 76 297 -83 289 -4 b 364 568 289 221 318 404 b 621 500 456 557 551 533 l 621 0 z m 378 614 b 621 975 440 813 529 969 l 621 542 b 378 614 560 571 469 597 z "},"Æ":{"ha":1157,"x_min":0,"x_max":0,"o":"m 1019 913 b 1142 1042 1082 913 1135 932 b 988 1015 1108 1029 1036 1015 b 750 1042 921 1015 815 1042 b 342 628 578 1042 436 851 b 278 631 319 631 299 631 b 14 485 126 631 14 578 b 107 397 14 422 64 397 b 165 443 135 397 165 407 b 129 488 165 464 156 479 b 128 496 128 490 128 493 b 319 574 128 542 213 571 b 214 78 251 394 214 201 b 411 -158 214 -132 324 -158 b 363 76 371 -83 363 -4 b 438 568 363 225 390 406 b 694 500 528 557 625 533 l 694 0 l 1153 0 l 1153 97 l 847 97 l 847 492 l 1051 492 l 1051 574 l 847 574 l 847 943 b 1019 913 903 928 963 913 z m 451 614 b 694 974 513 804 599 958 l 694 542 b 451 614 633 571 543 597 z "},"Á":{"ha":838,"x_min":0,"x_max":0,"o":"m 774 0 l 774 1022 b 663 1042 738 1036 690 1042 b 269 628 500 1042 363 851 b 204 631 247 629 225 631 b -60 488 53 631 -60 576 b 35 397 -60 421 -11 397 b 92 442 63 397 92 408 b 56 488 92 464 82 479 b 54 496 54 490 54 493 b 247 574 54 542 140 571 b 140 71 179 394 140 201 b 338 -158 140 -133 254 -158 b 289 76 297 -83 289 -4 b 364 568 289 221 318 404 b 621 500 456 557 551 533 l 621 0 z m 378 614 b 621 975 440 813 529 969 l 621 542 b 378 614 560 571 469 597 z m 553 1126 l 629 1126 l 742 1389 l 624 1389 z "},"Â":{"ha":838,"x_min":0,"x_max":0,"o":"m 774 0 l 774 1022 b 663 1042 738 1036 690 1042 b 269 628 500 1042 363 851 b 204 631 247 629 225 631 b -60 488 53 631 -60 576 b 35 397 -60 421 -11 397 b 92 442 63 397 92 408 b 56 488 92 464 82 479 b 54 496 54 490 54 493 b 247 574 54 542 140 571 b 140 71 179 394 140 201 b 338 -158 140 -133 254 -158 b 289 76 297 -83 289 -4 b 364 568 289 221 318 404 b 621 500 456 557 551 533 l 621 0 z m 378 614 b 621 975 440 813 529 969 l 621 542 b 378 614 560 571 469 597 z m 771 1126 l 638 1358 l 608 1358 l 378 1126 l 425 1126 l 621 1267 l 740 1126 z "},"Ä":{"ha":838,"x_min":0,"x_max":0,"o":"m 774 0 l 774 1022 b 663 1042 738 1036 690 1042 b 269 628 500 1042 363 851 b 204 631 247 629 225 631 b -60 488 53 631 -60 576 b 35 397 -60 421 -11 397 b 92 442 63 397 92 408 b 56 488 92 464 82 479 b 54 496 54 490 54 493 b 247 574 54 542 140 571 b 140 71 179 394 140 201 b 338 -158 140 -133 254 -158 b 289 76 297 -83 289 -4 b 364 568 289 221 318 404 b 621 500 456 557 551 533 l 621 0 z m 378 614 b 621 975 440 813 529 969 l 621 542 b 378 614 560 571 469 597 z m 635 1243 b 708 1169 635 1201 667 1169 b 783 1243 749 1169 783 1201 b 708 1318 783 1283 749 1318 b 635 1243 667 1318 635 1283 z m 414 1243 b 488 1169 414 1201 446 1169 b 563 1243 528 1169 563 1201 b 488 1318 563 1283 528 1318 b 414 1243 446 1318 414 1283 z "},"À":{"ha":838,"x_min":0,"x_max":0,"o":"m 774 0 l 774 1022 b 663 1042 738 1036 690 1042 b 269 628 500 1042 363 851 b 204 631 247 629 225 631 b -60 488 53 631 -60 576 b 35 397 -60 421 -11 397 b 92 442 63 397 92 408 b 56 488 92 464 82 479 b 54 496 54 490 54 493 b 247 574 54 542 140 571 b 140 71 179 394 140 201 b 338 -158 140 -133 254 -158 b 289 76 297 -83 289 -4 b 364 568 289 221 318 404 b 621 500 456 557 551 533 l 621 0 z m 378 614 b 621 975 440 813 529 969 l 621 542 b 378 614 560 571 469 597 z m 539 1389 l 421 1389 l 561 1126 l 638 1126 z "},"Ą":{"ha":838,"x_min":0,"x_max":0,"o":"m 774 0 l 774 1022 b 663 1042 738 1036 690 1042 b 269 628 500 1042 363 851 b 204 631 247 629 225 631 b -60 488 53 631 -60 576 b 35 397 -60 421 -11 397 b 92 442 63 397 92 408 b 56 488 92 464 82 479 b 54 496 54 490 54 493 b 247 574 54 542 140 571 b 140 71 179 394 140 201 b 338 -158 140 -133 254 -158 b 289 76 297 -83 289 -4 b 364 568 289 221 318 404 b 621 500 456 557 551 533 l 621 0 b 556 -140 578 -44 556 -96 b 690 -268 556 -194 604 -268 b 824 -182 763 -268 796 -214 l 818 -139 b 732 -200 794 -171 769 -200 b 646 -106 674 -200 646 -154 b 699 0 646 -64 664 -22 z m 378 614 b 621 975 440 813 529 969 l 621 542 b 378 614 560 571 469 597 z "},"Å":{"ha":838,"x_min":0,"x_max":0,"o":"m 774 0 l 774 1022 b 663 1042 738 1036 690 1042 b 269 628 500 1042 363 851 b 204 631 247 629 225 631 b -60 488 53 631 -60 576 b 35 397 -60 421 -11 397 b 92 442 63 397 92 408 b 56 488 92 464 82 479 b 54 496 54 490 54 493 b 247 574 54 542 140 571 b 140 71 179 394 140 201 b 338 -158 140 -133 254 -158 b 289 76 297 -83 289 -4 b 364 568 289 221 318 404 b 621 500 456 557 551 533 l 621 0 z m 378 614 b 621 975 440 813 529 969 l 621 542 b 378 614 560 571 469 597 z m 585 1118 b 686 1222 654 1118 686 1167 b 578 1338 686 1279 651 1338 b 469 1231 508 1338 469 1286 b 585 1118 469 1175 508 1118 z m 583 1165 b 525 1229 544 1165 525 1200 b 582 1292 525 1260 546 1292 b 636 1225 619 1292 636 1257 b 583 1165 636 1193 618 1165 z "},"Ã":{"ha":838,"x_min":0,"x_max":0,"o":"m 774 0 l 774 1022 b 663 1042 738 1036 690 1042 b 269 628 500 1042 363 851 b 204 631 247 629 225 631 b -60 488 53 631 -60 576 b 35 397 -60 421 -11 397 b 92 442 63 397 92 408 b 56 488 92 464 82 479 b 54 496 54 490 54 493 b 247 574 54 542 140 571 b 140 71 179 394 140 201 b 338 -158 140 -133 254 -158 b 289 76 297 -83 289 -4 b 364 568 289 221 318 404 b 621 500 456 557 551 533 l 621 0 z m 378 614 b 621 975 440 813 529 969 l 621 542 b 378 614 560 571 469 597 z m 829 1271 b 756 1243 815 1253 786 1243 b 540 1283 683 1243 632 1283 b 358 1161 446 1283 382 1242 l 365 1158 b 442 1192 385 1181 408 1192 b 661 1146 510 1192 579 1146 b 836 1271 756 1146 835 1211 z "},"B":{"ha":931,"x_min":0,"x_max":0,"o":"m 142 706 b 456 992 142 899 296 992 b 676 806 601 992 676 914 b 492 597 676 710 596 597 l 472 597 l 472 911 l 322 890 l 322 0 l 472 0 l 472 542 b 563 547 503 544 540 547 b 754 299 682 547 754 474 b 639 89 754 204 733 89 b 536 143 606 89 563 103 b 531 96 532 131 531 107 b 685 -24 531 17 603 -24 b 918 313 875 -24 918 194 b 682 603 918 488 824 589 b 790 796 751 651 790 726 b 469 1042 790 924 688 1042 b 24 707 225 1042 24 893 b 190 546 24 599 88 546 b 142 706 181 564 142 604 z "},"C":{"ha":701,"x_min":0,"x_max":0,"o":"m 771 250 b 524 83 721 133 643 83 b 229 510 336 83 229 207 b 467 992 229 753 299 992 b 583 863 536 992 583 950 b 550 753 583 811 567 765 b 615 728 565 736 590 728 b 689 825 669 728 689 767 b 429 1042 689 969 569 1042 b 65 486 144 1042 65 740 b 443 -22 65 147 206 -22 b 806 236 618 -22 758 69 z "},"Ć":{"ha":701,"x_min":0,"x_max":0,"o":"m 771 250 b 524 83 721 133 643 83 b 229 510 336 83 229 207 b 467 992 229 753 299 992 b 583 863 536 992 583 950 b 550 753 583 811 567 765 b 615 728 565 736 590 728 b 689 825 669 728 689 767 b 429 1042 689 969 569 1042 b 65 486 144 1042 65 740 b 443 -22 65 147 206 -22 b 806 236 618 -22 758 69 z m 422 1126 l 499 1126 l 611 1389 l 493 1389 z "},"Č":{"ha":701,"x_min":0,"x_max":0,"o":"m 771 250 b 524 83 721 133 643 83 b 229 510 336 83 229 207 b 467 992 229 753 299 992 b 583 863 536 992 583 950 b 550 753 583 811 567 765 b 615 728 565 736 590 728 b 689 825 669 728 689 767 b 429 1042 689 969 569 1042 b 65 486 144 1042 65 740 b 443 -22 65 147 206 -22 b 806 236 618 -22 758 69 z m 301 1378 l 435 1146 l 464 1146 l 694 1378 l 647 1378 l 451 1238 l 332 1378 z "},"Ç":{"ha":704,"x_min":0,"x_max":0,"o":"m 640 -178 b 536 -81 640 -115 606 -81 b 465 -92 515 -81 492 -85 l 478 -21 b 807 236 636 -10 763 79 l 772 250 b 525 83 722 133 644 83 b 231 510 338 83 231 207 b 468 992 231 753 300 992 b 585 863 538 992 585 950 b 551 753 585 811 568 765 b 617 728 567 736 592 728 b 690 825 671 728 690 767 b 431 1042 690 969 571 1042 b 67 486 146 1042 67 740 b 418 -21 67 160 197 -10 l 399 -165 b 478 -135 414 -153 435 -135 b 561 -207 535 -135 561 -176 b 504 -261 561 -233 539 -261 b 392 -219 465 -261 428 -219 b 346 -264 365 -219 354 -242 b 503 -303 390 -285 432 -303 b 640 -178 574 -303 640 -258 z "},"Ĉ":{"ha":701,"x_min":0,"x_max":0,"o":"m 771 250 b 524 83 721 133 643 83 b 229 510 336 83 229 207 b 467 992 229 753 299 992 b 583 863 536 992 583 950 b 550 753 583 811 567 765 b 615 728 565 736 590 728 b 689 825 669 728 689 767 b 429 1042 689 969 569 1042 b 65 486 144 1042 65 740 b 443 -22 65 147 206 -22 b 806 236 618 -22 758 69 z m 626 1126 l 493 1358 l 464 1358 l 233 1126 l 281 1126 l 476 1267 l 596 1126 z "},"D":{"ha":979,"x_min":0,"x_max":0,"o":"m 336 890 l 336 0 l 486 0 l 486 63 b 678 -18 560 7 622 -18 b 944 510 832 -18 944 247 b 464 1042 944 779 818 1042 b 25 715 214 1042 25 888 b 207 546 25 593 94 546 b 131 704 185 561 131 597 b 444 992 131 885 276 992 b 779 508 686 992 779 851 b 583 72 779 307 726 72 b 486 108 554 72 521 82 l 486 911 z "},"E":{"ha":621,"x_min":0,"x_max":0,"o":"m 689 250 b 429 85 656 163 563 85 b 211 314 281 85 211 181 b 401 581 211 447 279 553 b 246 801 256 615 246 763 b 401 992 246 893 301 992 b 513 892 456 992 513 963 b 456 792 513 839 482 803 b 529 754 481 765 506 754 b 606 868 575 754 606 797 b 393 1044 606 1004 494 1044 b 119 789 210 1044 119 911 b 244 579 119 710 157 635 b 57 290 126 531 57 426 b 353 -25 57 140 140 -25 b 724 236 511 -25 674 68 z "},"É":{"ha":621,"x_min":0,"x_max":0,"o":"m 689 250 b 429 85 656 163 563 85 b 211 314 281 85 211 181 b 401 581 211 447 279 553 b 246 801 256 615 246 763 b 401 992 246 893 301 992 b 513 892 456 992 513 963 b 456 792 513 839 482 803 b 529 754 481 765 506 754 b 606 868 575 754 606 797 b 393 1044 606 1004 494 1044 b 119 789 210 1044 119 911 b 244 579 119 710 157 635 b 57 290 126 531 57 426 b 353 -25 57 140 140 -25 b 724 236 511 -25 674 68 z m 349 1126 l 425 1126 l 538 1389 l 419 1389 z "},"Ê":{"ha":621,"x_min":0,"x_max":0,"o":"m 689 250 b 429 85 656 163 563 85 b 211 314 281 85 211 181 b 401 581 211 447 279 553 b 246 801 256 615 246 763 b 401 992 246 893 301 992 b 513 892 456 992 513 963 b 456 792 513 839 482 803 b 529 754 481 765 506 754 b 606 868 575 754 606 797 b 393 1044 606 1004 494 1044 b 119 789 210 1044 119 911 b 244 579 119 710 157 635 b 57 290 126 531 57 426 b 353 -25 57 140 140 -25 b 724 236 511 -25 674 68 z m 582 1126 l 449 1358 l 419 1358 l 189 1126 l 236 1126 l 432 1267 l 551 1126 z "},"Ë":{"ha":621,"x_min":0,"x_max":0,"o":"m 689 250 b 429 85 656 163 563 85 b 211 314 281 85 211 181 b 401 581 211 447 279 553 b 246 801 256 615 246 763 b 401 992 246 893 301 992 b 513 892 456 992 513 963 b 456 792 513 839 482 803 b 529 754 481 765 506 754 b 606 868 575 754 606 797 b 393 1044 606 1004 494 1044 b 119 789 210 1044 119 911 b 244 579 119 710 157 635 b 57 290 126 531 57 426 b 353 -25 57 140 140 -25 b 724 236 511 -25 674 68 z m 178 1243 b 251 1169 178 1201 210 1169 b 326 1243 292 1169 326 1201 b 251 1318 326 1283 292 1318 b 178 1243 210 1318 178 1283 z m 399 1243 b 472 1169 399 1201 431 1169 b 547 1243 513 1169 547 1201 b 472 1318 547 1283 513 1318 b 399 1243 431 1318 399 1283 z "},"È":{"ha":621,"x_min":0,"x_max":0,"o":"m 689 250 b 429 85 656 163 563 85 b 211 314 281 85 211 181 b 401 581 211 447 279 553 b 246 801 256 615 246 763 b 401 992 246 893 301 992 b 513 892 456 992 513 963 b 456 792 513 839 482 803 b 529 754 481 765 506 754 b 606 868 575 754 606 797 b 393 1044 606 1004 494 1044 b 119 789 210 1044 119 911 b 244 579 119 710 157 635 b 57 290 126 531 57 426 b 353 -25 57 140 140 -25 b 724 236 511 -25 674 68 z m 329 1389 l 211 1389 l 351 1126 l 428 1126 z "},"Ę":{"ha":621,"x_min":0,"x_max":0,"o":"m 689 250 b 429 85 656 163 563 85 b 211 314 281 85 211 181 b 401 581 211 447 279 553 b 246 799 258 614 246 753 b 401 992 246 894 301 992 b 513 892 456 992 513 963 b 456 792 513 839 482 803 b 529 754 481 765 506 754 b 606 868 575 754 606 797 b 393 1044 606 1004 494 1044 b 119 789 210 1044 119 911 b 244 579 119 710 157 635 b 57 290 126 531 57 426 b 353 -25 57 140 140 -25 b 503 3 404 -25 456 -15 b 433 -140 457 -42 433 -96 b 568 -268 433 -194 482 -268 b 701 -182 640 -268 674 -214 l 696 -139 b 610 -200 672 -171 647 -200 b 539 -103 568 -200 539 -161 b 596 54 539 -57 547 4 b 724 236 647 106 700 158 z "},"Ð":{"ha":979,"x_min":0,"x_max":0,"o":"m 131 704 b 444 992 131 885 276 992 b 779 508 686 992 779 851 b 583 72 779 307 726 72 b 486 108 554 72 521 82 l 486 489 l 600 489 l 600 574 l 486 574 l 486 911 l 336 890 l 336 574 l 247 574 l 247 489 l 336 489 l 336 0 l 486 0 l 486 63 b 678 -18 560 7 622 -18 b 944 510 832 -18 944 247 b 464 1042 944 779 818 1042 b 25 715 214 1042 25 888 b 207 546 25 593 94 546 b 131 704 185 561 131 597 z "},"€":{"ha":856,"x_min":0,"x_max":0,"o":"m 39 464 l 39 408 l 140 408 b 515 -22 160 121 296 -22 b 828 129 649 -22 761 31 l 792 164 b 596 83 744 108 681 83 b 306 408 431 83 328 179 l 597 408 l 597 464 l 301 464 l 301 510 b 303 568 301 529 301 549 l 597 568 l 597 624 l 307 624 b 539 992 325 822 397 992 b 656 863 608 992 656 950 b 622 753 656 811 639 765 b 688 728 638 736 663 728 b 761 825 742 728 761 767 b 501 1042 761 969 642 1042 b 144 624 267 1042 171 838 l 39 624 l 39 568 l 140 568 b 138 486 138 540 138 513 l 138 464 z "},"F":{"ha":769,"x_min":0,"x_max":0,"o":"m 665 897 b 790 1042 731 897 785 914 b 667 1025 754 1029 713 1025 b 415 1042 574 1025 510 1042 b 29 728 144 1042 29 904 b 194 546 29 606 85 546 b 132 743 161 574 132 644 b 304 949 132 901 207 949 b 331 947 313 949 321 949 l 331 0 l 481 0 l 481 522 l 686 522 l 686 604 l 481 604 l 481 922 b 665 897 543 910 607 897 z "},"G":{"ha":824,"x_min":0,"x_max":0,"o":"m 639 582 b 433 249 625 369 556 249 b 214 593 296 249 214 400 b 485 992 214 794 303 992 b 629 863 565 992 629 953 b 569 764 629 781 578 764 b 658 728 608 740 625 728 b 749 843 735 728 749 794 b 465 1044 749 1001 597 1044 b 46 585 169 1044 46 829 b 390 151 46 324 186 151 b 622 283 492 151 574 194 l 622 -47 b 490 -233 622 -192 554 -233 b 351 -96 415 -233 351 -175 b 444 -3 351 -43 381 -3 b 532 -42 465 -3 500 -7 b 539 -3 538 -26 539 -12 b 411 94 539 63 485 94 b 250 -75 288 94 250 6 b 490 -287 250 -172 304 -287 b 774 58 689 -287 774 -157 l 774 581 z "},"Ğ":{"ha":824,"x_min":0,"x_max":0,"o":"m 639 582 b 433 249 625 369 556 249 b 214 593 296 249 214 400 b 485 992 214 794 303 992 b 629 863 565 992 629 953 b 569 764 629 781 578 764 b 658 728 608 740 625 728 b 749 843 735 728 749 794 b 465 1044 749 1001 597 1044 b 46 585 169 1044 46 829 b 390 151 46 324 186 151 b 622 283 492 151 574 194 l 622 -47 b 490 -233 622 -192 554 -233 b 351 -96 415 -233 351 -175 b 444 -3 351 -43 381 -3 b 532 -42 465 -3 500 -7 b 539 -3 538 -26 539 -12 b 411 94 539 63 485 94 b 250 -75 288 94 250 6 b 490 -287 250 -172 304 -287 b 774 58 689 -287 774 -157 l 774 581 z m 625 1324 b 479 1176 624 1225 551 1176 b 335 1324 407 1176 335 1225 l 239 1324 b 478 1125 239 1192 358 1125 b 717 1324 597 1125 717 1192 z "},"H":{"ha":964,"x_min":0,"x_max":0,"o":"m 749 996 l 749 604 l 449 604 l 449 1039 b 392 1042 431 1040 413 1042 b 25 718 203 1042 25 893 b 197 546 25 592 103 546 b 133 710 172 558 133 582 b 297 968 133 833 196 928 l 297 0 l 449 0 l 449 522 l 749 522 l 749 0 l 900 0 l 900 1039 z "},"I":{"ha":560,"x_min":0,"x_max":0,"o":"m 496 1039 b 438 1042 478 1040 458 1042 b 25 714 226 1042 25 890 b 206 546 25 593 94 546 b 142 710 172 575 142 611 b 343 960 142 836 219 925 l 343 0 l 496 0 z "},"Ĳ":{"ha":917,"x_min":0,"x_max":0,"o":"m 496 1039 b 438 1042 478 1040 458 1042 b 25 714 226 1042 25 890 b 206 546 25 593 94 546 b 142 710 172 575 142 611 b 343 960 142 836 219 925 l 343 0 l 365 0 b 344 -89 351 -26 344 -57 b 567 -287 344 -185 411 -287 b 853 56 785 -287 853 -156 l 853 1042 l 697 1004 l 697 -47 b 558 -231 697 -176 629 -231 b 450 -119 483 -231 450 -174 b 524 -24 450 -71 476 -24 b 604 -58 550 -24 579 -35 b 606 -39 604 -51 606 -44 b 496 75 606 40 565 72 z "},"Í":{"ha":560,"x_min":0,"x_max":0,"o":"m 496 1039 b 438 1042 478 1040 458 1042 b 25 714 226 1042 25 890 b 206 546 25 593 94 546 b 142 710 172 575 142 611 b 343 960 142 836 219 925 l 343 0 l 496 0 z m 378 1126 l 454 1126 l 567 1389 l 449 1389 z "},"Î":{"ha":560,"x_min":0,"x_max":0,"o":"m 496 1039 b 438 1042 478 1040 458 1042 b 25 714 226 1042 25 890 b 206 546 25 593 94 546 b 142 710 172 575 142 611 b 343 960 142 836 219 925 l 343 0 l 496 0 z m 610 1126 l 476 1358 l 447 1358 l 217 1126 l 264 1126 l 460 1267 l 579 1126 z "},"Ï":{"ha":560,"x_min":0,"x_max":0,"o":"m 496 1039 b 438 1042 478 1040 458 1042 b 25 714 226 1042 25 890 b 206 546 25 593 94 546 b 142 710 172 575 142 611 b 343 960 142 836 219 925 l 343 0 l 496 0 z m 454 1243 b 528 1169 454 1201 486 1169 b 603 1243 568 1169 603 1201 b 528 1318 603 1283 568 1318 b 454 1243 486 1318 454 1283 z m 233 1243 b 307 1169 233 1201 265 1169 b 382 1243 347 1169 382 1201 b 307 1318 382 1283 347 1318 b 233 1243 265 1318 233 1283 z "},"Ì":{"ha":560,"x_min":0,"x_max":0,"o":"m 496 1039 b 438 1042 478 1040 458 1042 b 25 714 226 1042 25 890 b 206 546 25 593 94 546 b 142 710 172 575 142 611 b 343 960 142 836 219 925 l 343 0 l 496 0 z m 354 1389 l 236 1389 l 376 1126 l 453 1126 z "},"J":{"ha":601,"x_min":0,"x_max":0,"o":"m 481 1042 b 65 707 268 1042 65 894 b 246 546 65 597 135 546 b 182 704 221 565 182 607 b 382 961 182 838 254 931 l 382 -47 b 243 -231 382 -176 314 -231 b 108 -110 178 -231 108 -186 b 199 -4 108 -42 150 -4 b 279 -39 225 -4 254 -15 b 281 -19 279 -32 281 -25 b 163 94 281 64 238 94 b 1 -78 38 94 1 1 b 251 -287 1 -197 72 -287 b 538 56 469 -287 538 -156 l 538 1042 z "},"K":{"ha":900,"x_min":0,"x_max":0,"o":"m 494 1039 b 436 1042 476 1040 457 1042 b 24 714 225 1042 24 890 b 192 546 24 592 101 546 b 133 707 142 590 133 649 b 342 961 133 836 214 925 l 342 0 l 494 0 l 494 532 b 549 539 513 536 532 539 b 681 372 624 539 681 500 b 665 119 681 301 665 192 b 788 -24 665 36 706 -24 b 907 0 821 -24 851 -17 b 828 146 863 15 828 63 b 835 360 828 200 835 292 b 614 592 835 489 803 592 b 554 589 599 592 579 590 l 865 1035 l 743 1035 l 494 590 z "},"L":{"ha":629,"x_min":0,"x_max":0,"o":"m 496 1025 b 438 1028 478 1026 458 1028 b 25 700 226 1028 25 876 b 206 532 25 579 94 532 b 142 696 172 561 142 597 b 343 946 142 822 219 911 l 343 -32 b 375 -31 354 -31 364 -31 b 828 -249 554 -31 682 -249 b 981 -106 922 -249 981 -182 b 976 -68 981 -93 979 -81 b 869 -96 939 -86 904 -96 b 494 28 713 -96 614 1 l 494 1021 z "},"Ł":{"ha":679,"x_min":0,"x_max":0,"o":"m 343 -32 b 375 -31 354 -31 364 -31 b 828 -249 554 -31 682 -249 b 981 -106 922 -249 981 -182 b 976 -68 981 -93 979 -81 b 869 -96 939 -86 904 -96 b 494 28 713 -96 614 1 l 494 579 l 646 694 l 638 756 l 494 647 l 494 1025 b 438 1028 478 1026 458 1028 b 25 700 226 1028 25 876 b 206 532 25 579 94 532 b 142 696 172 561 142 597 b 343 946 142 822 219 911 l 343 533 l 206 429 l 215 369 l 343 465 z "},"M":{"ha":1044,"x_min":0,"x_max":0,"o":"m 642 0 l 789 728 l 844 0 l 1003 0 l 925 1022 l 767 1022 l 604 215 l 465 1022 b 381 1042 440 1036 410 1042 b 29 704 226 1042 29 888 b 196 546 29 596 97 546 b 144 707 183 554 144 581 b 326 972 144 861 210 946 l 174 0 l 257 0 l 369 714 l 493 0 z "},"N":{"ha":985,"x_min":0,"x_max":0,"o":"m 828 1039 l 828 131 l 442 1022 b 344 1042 410 1036 376 1042 b 28 725 157 1042 28 876 b 197 546 28 600 82 546 b 131 722 171 568 131 608 b 293 957 131 846 192 922 l 293 0 l 386 0 l 386 782 l 735 0 l 921 0 l 921 1039 z "},"Ń":{"ha":985,"x_min":0,"x_max":0,"o":"m 828 1039 l 828 131 l 442 1022 b 344 1042 410 1036 376 1042 b 28 725 157 1042 28 876 b 197 546 28 600 82 546 b 131 722 171 568 131 608 b 293 957 131 846 192 922 l 293 0 l 386 0 l 386 782 l 735 0 l 921 0 l 921 1039 z m 561 1126 l 638 1126 l 750 1389 l 632 1389 z "},"Ñ":{"ha":985,"x_min":0,"x_max":0,"o":"m 828 1039 l 828 131 l 442 1022 b 344 1042 410 1036 376 1042 b 28 725 157 1042 28 876 b 197 546 28 600 82 546 b 131 722 171 568 131 608 b 293 957 131 846 192 922 l 293 0 l 386 0 l 386 782 l 735 0 l 921 0 l 921 1039 z m 831 1271 b 757 1243 817 1253 788 1243 b 542 1283 685 1243 633 1283 b 360 1161 447 1283 383 1242 l 367 1158 b 443 1192 386 1181 410 1192 b 663 1146 511 1192 581 1146 b 838 1271 757 1146 836 1211 z "},"O":{"ha":975,"x_min":0,"x_max":0,"o":"m 546 911 b 475 922 519 919 494 922 b 232 450 292 922 232 661 b 569 -8 232 111 385 -8 b 939 519 854 -8 939 275 b 497 1042 939 786 838 1042 b 25 700 233 1042 25 889 b 186 546 25 597 86 546 b 143 681 178 551 143 575 b 475 992 143 888 290 992 b 771 554 633 992 771 915 b 565 97 771 328 717 97 b 403 425 424 97 403 303 b 546 911 403 614 453 856 z "},"Œ":{"ha":1226,"x_min":0,"x_max":0,"o":"m 546 911 b 475 922 519 919 494 922 b 232 450 292 922 232 661 b 569 -8 232 111 385 -8 b 649 0 597 -8 625 -6 l 1210 0 l 1210 97 l 814 97 b 938 492 900 194 933 347 l 1132 492 l 1132 574 l 938 574 b 789 944 929 719 888 857 b 1096 897 883 932 997 897 b 1218 1042 1160 897 1214 914 b 1096 1025 1182 1029 1142 1025 b 843 1042 1003 1025 939 1042 b 679 1010 772 1042 725 1028 b 497 1042 628 1031 568 1042 b 25 700 233 1042 25 889 b 186 546 25 597 86 546 b 143 681 178 551 143 576 b 475 992 143 888 290 992 b 771 554 633 992 771 915 b 565 97 771 328 717 97 b 403 425 424 97 403 303 b 546 911 403 614 453 856 z "},"Ó":{"ha":975,"x_min":0,"x_max":0,"o":"m 546 911 b 475 922 519 919 494 922 b 232 450 292 922 232 661 b 569 -8 232 111 385 -8 b 939 519 854 -8 939 275 b 497 1042 939 786 838 1042 b 25 700 233 1042 25 889 b 186 546 25 597 86 546 b 143 681 176 551 143 575 b 475 992 143 888 290 992 b 771 554 633 992 771 915 b 565 97 771 328 717 97 b 403 425 424 97 403 303 b 546 911 403 614 453 856 z m 533 1126 l 610 1126 l 722 1389 l 604 1389 z "},"Ô":{"ha":975,"x_min":0,"x_max":0,"o":"m 546 911 b 475 922 519 919 494 922 b 232 450 292 922 232 661 b 569 -8 232 111 385 -8 b 939 519 854 -8 939 275 b 497 1042 939 786 838 1042 b 25 700 233 1042 25 889 b 186 546 25 597 86 546 b 143 681 176 550 143 575 b 475 992 143 888 290 992 b 771 554 633 992 771 915 b 565 97 771 328 717 97 b 403 425 424 97 403 303 b 546 911 403 614 453 856 z m 767 1126 l 633 1358 l 604 1358 l 374 1126 l 421 1126 l 617 1267 l 736 1126 z "},"Ö":{"ha":975,"x_min":0,"x_max":0,"o":"m 546 911 b 475 922 519 919 494 922 b 232 450 292 922 232 661 b 569 -8 232 111 385 -8 b 939 519 854 -8 939 275 b 497 1042 939 786 838 1042 b 25 700 233 1042 25 889 b 186 546 25 597 86 546 b 143 681 178 551 143 578 b 475 992 143 888 290 992 b 771 554 633 992 771 915 b 565 97 771 328 717 97 b 403 425 424 97 403 303 b 546 911 403 614 453 856 z m 392 1243 b 465 1169 392 1201 424 1169 b 540 1243 506 1169 540 1201 b 465 1318 540 1283 506 1318 b 392 1243 424 1318 392 1283 z m 613 1243 b 686 1169 613 1201 644 1169 b 761 1243 726 1169 761 1201 b 686 1318 761 1283 726 1318 b 613 1243 644 1318 613 1283 z "},"Ò":{"ha":975,"x_min":0,"x_max":0,"o":"m 546 911 b 475 922 519 919 494 922 b 232 450 292 922 232 661 b 569 -8 232 111 385 -8 b 939 519 854 -8 939 275 b 497 1042 939 786 838 1042 b 25 700 233 1042 25 889 b 186 546 25 597 86 546 b 143 681 176 551 143 575 b 475 992 143 888 290 992 b 771 554 633 992 771 915 b 565 97 771 328 717 97 b 403 425 424 97 403 303 b 546 911 403 614 453 856 z m 528 1389 l 410 1389 l 550 1126 l 626 1126 z "},"Ő":{"ha":975,"x_min":0,"x_max":0,"o":"m 546 911 b 475 922 519 919 494 922 b 232 450 292 922 232 661 b 569 -8 232 111 385 -8 b 939 519 854 -8 939 275 b 497 1042 939 786 838 1042 b 25 700 233 1042 25 889 b 186 546 25 597 86 546 b 143 681 181 550 143 578 b 475 992 143 888 290 992 b 771 554 633 992 771 915 b 565 97 771 328 717 97 b 403 425 424 97 403 303 b 546 911 403 614 453 856 z m 443 1126 l 519 1126 l 632 1389 l 514 1389 z m 624 1126 l 700 1126 l 813 1389 l 694 1389 z "},"Ø":{"ha":958,"x_min":0,"x_max":0,"o":"m 543 911 b 472 922 517 919 492 922 b 229 450 289 922 229 661 b 554 -8 229 118 374 -3 l 554 -99 l 599 -99 l 599 -7 b 936 519 856 14 936 285 b 599 1032 936 757 856 983 l 599 1046 l 554 1046 l 554 1039 b 494 1042 535 1040 515 1042 b 22 700 231 1042 22 889 b 183 546 22 597 83 546 b 140 681 174 553 140 578 b 472 992 140 888 288 992 b 554 982 500 992 528 989 l 554 97 b 400 425 418 104 400 304 b 543 911 400 614 450 856 z m 768 554 b 599 101 768 347 721 138 l 599 968 b 768 554 697 925 768 813 z "},"Õ":{"ha":975,"x_min":0,"x_max":0,"o":"m 546 911 b 475 922 519 919 494 922 b 232 450 292 922 232 661 b 569 -8 232 111 385 -8 b 939 519 854 -8 939 275 b 497 1042 939 786 838 1042 b 25 700 233 1042 25 889 b 186 546 25 597 86 546 b 143 681 178 551 143 575 b 475 992 143 888 290 992 b 771 554 633 992 771 915 b 565 97 771 328 717 97 b 403 425 424 97 403 303 b 546 911 403 614 453 856 z m 797 1271 b 724 1243 783 1253 754 1243 b 508 1283 651 1243 600 1283 b 326 1161 414 1283 350 1242 l 333 1158 b 410 1192 353 1181 376 1192 b 629 1146 478 1192 547 1146 b 804 1271 724 1146 803 1211 z "},"P":{"ha":835,"x_min":0,"x_max":0,"o":"m 322 890 l 322 0 l 472 0 l 472 396 l 503 396 b 833 743 722 396 833 588 b 449 1042 833 910 694 1042 b 25 714 224 1042 25 890 b 192 546 25 594 89 546 b 133 711 178 558 133 597 b 428 992 133 892 264 992 b 703 722 668 992 703 840 b 472 439 703 588 636 440 l 472 911 z "},"Q":{"ha":1010,"x_min":0,"x_max":0,"o":"m 544 911 b 474 922 518 919 493 922 b 231 450 290 922 231 661 b 567 -8 231 111 383 -8 b 711 21 622 -8 671 3 b 918 -126 760 -51 814 -126 b 1025 -37 978 -126 1010 -101 b 992 -40 1015 -39 1006 -40 b 785 69 900 -40 842 13 b 938 526 899 171 938 354 b 508 1042 938 785 850 1042 b 24 699 246 1042 24 889 b 185 546 24 599 85 546 b 142 678 178 550 142 578 b 488 992 142 888 303 992 b 769 561 644 992 769 915 b 683 164 769 403 744 250 b 553 208 647 190 606 208 b 439 189 526 208 483 204 b 401 421 407 258 401 356 b 544 911 401 615 451 856 z m 540 167 b 639 121 581 167 613 149 b 564 97 617 106 592 97 b 464 147 519 97 488 117 b 540 167 490 161 519 167 z "},"R":{"ha":906,"x_min":0,"x_max":0,"o":"m 321 890 l 321 0 l 471 0 l 471 529 b 549 539 493 535 528 539 b 681 372 624 539 681 500 b 665 119 681 301 665 192 b 788 -24 665 36 706 -24 b 907 0 821 -24 851 -17 b 828 146 863 15 828 63 b 835 360 828 200 835 292 b 678 588 835 472 815 567 b 806 813 763 642 806 736 b 450 1042 806 947 672 1042 b 24 714 215 1042 24 888 b 188 546 24 590 111 546 b 142 707 176 558 142 576 b 443 992 142 885 271 992 b 683 799 638 992 683 888 b 507 588 683 697 618 588 l 471 588 l 471 911 z "},"S":{"ha":685,"x_min":0,"x_max":0,"o":"m 611 850 b 369 1040 611 1022 433 1040 b 90 760 225 1040 90 946 b 497 249 90 438 497 558 b 350 60 497 126 435 60 b 178 208 278 60 178 108 b 289 331 178 256 200 326 b 199 410 267 392 239 410 b 47 207 99 410 47 299 b 342 -17 47 49 199 -17 b 665 290 504 -17 665 67 b 225 822 665 661 225 553 b 375 990 225 915 278 990 b 508 858 468 990 508 922 b 468 763 508 819 493 781 b 528 733 486 743 503 733 b 611 850 578 733 611 776 z "},"Ś":{"ha":685,"x_min":0,"x_max":0,"o":"m 611 850 b 369 1040 611 1022 433 1040 b 90 760 225 1040 90 946 b 497 249 90 438 497 558 b 350 60 497 126 435 60 b 178 208 278 60 178 108 b 289 331 178 256 200 326 b 199 410 267 392 239 410 b 47 207 99 410 47 299 b 342 -17 47 49 199 -17 b 665 290 504 -17 665 67 b 225 822 665 661 225 553 b 375 990 225 915 278 990 b 508 858 468 990 508 922 b 468 763 508 819 493 781 b 528 733 486 743 503 733 b 611 850 578 733 611 776 z m 324 1126 l 400 1126 l 513 1389 l 394 1389 z "},"Š":{"ha":685,"x_min":0,"x_max":0,"o":"m 611 850 b 369 1040 611 1022 433 1040 b 90 760 225 1040 90 946 b 497 249 90 438 497 558 b 350 60 497 126 435 60 b 178 208 278 60 178 108 b 289 331 178 256 200 326 b 199 410 267 392 239 410 b 47 207 99 410 47 299 b 342 -17 47 49 199 -17 b 665 290 504 -17 665 67 b 225 822 665 661 225 553 b 375 990 225 915 278 990 b 508 858 468 990 508 922 b 468 763 508 819 493 781 b 528 733 486 743 503 733 b 611 850 578 733 611 776 z m 210 1378 l 343 1146 l 372 1146 l 603 1378 l 556 1378 l 360 1238 l 240 1378 z "},"T":{"ha":932,"x_min":0,"x_max":0,"o":"m 808 875 b 956 990 907 875 956 911 b 951 1038 956 1004 954 1021 b 788 1008 917 1022 864 1008 b 442 1040 672 1008 590 1040 b 28 746 139 1040 28 897 b 192 544 28 596 100 544 b 135 738 165 575 135 626 b 375 933 135 886 219 933 b 431 931 393 933 411 933 l 431 0 l 581 0 l 581 908 b 808 875 663 890 742 875 z "},"Þ":{"ha":833,"x_min":0,"x_max":0,"o":"m 300 1019 l 300 867 b 25 557 139 819 25 699 b 175 397 25 457 81 397 b 126 551 168 411 126 439 b 300 819 126 693 192 782 l 300 0 l 451 0 l 451 244 b 500 243 469 243 497 243 b 831 579 719 243 831 428 b 457 889 831 749 690 889 l 451 889 l 451 1040 z m 713 572 b 482 285 713 421 628 285 l 451 285 l 451 839 b 713 572 661 831 713 690 z "},"U":{"ha":1069,"x_min":0,"x_max":0,"o":"m 854 1039 l 854 290 b 683 97 854 119 768 97 b 514 288 599 97 514 119 l 514 1035 b 449 1042 485 1040 469 1042 b 22 713 224 1042 22 890 b 175 547 22 601 100 547 b 125 703 167 561 125 596 b 343 982 125 851 206 951 l 343 285 b 672 -10 343 179 389 -10 b 1007 286 958 -10 1007 182 l 1007 1039 z "},"Ú":{"ha":1069,"x_min":0,"x_max":0,"o":"m 854 1039 l 854 290 b 683 97 854 119 768 97 b 514 288 599 97 514 119 l 514 1035 b 449 1042 485 1040 469 1042 b 22 713 224 1042 22 890 b 175 547 22 601 100 547 b 125 703 167 561 125 596 b 343 982 125 851 206 951 l 343 285 b 672 -10 343 179 389 -10 b 1007 286 958 -10 1007 182 l 1007 1039 z m 631 1126 l 707 1126 l 819 1389 l 701 1389 z "},"Û":{"ha":1069,"x_min":0,"x_max":0,"o":"m 854 1039 l 854 290 b 683 97 854 119 768 97 b 514 288 599 97 514 119 l 514 1035 b 449 1042 485 1040 469 1042 b 22 713 224 1042 22 890 b 175 547 22 601 100 547 b 125 703 167 561 125 596 b 343 982 125 851 206 951 l 343 285 b 672 -10 343 179 389 -10 b 1007 286 958 -10 1007 182 l 1007 1039 z m 879 1126 l 746 1358 l 717 1358 l 486 1126 l 533 1126 l 729 1267 l 849 1126 z "},"Ü":{"ha":1069,"x_min":0,"x_max":0,"o":"m 854 1039 l 854 290 b 683 97 854 119 768 97 b 514 288 599 97 514 119 l 514 1035 b 449 1042 485 1040 469 1042 b 22 713 224 1042 22 890 b 175 547 22 601 100 547 b 125 703 167 561 125 596 b 343 982 125 851 206 951 l 343 285 b 672 -10 343 179 389 -10 b 1007 286 958 -10 1007 182 l 1007 1039 z m 718 1243 b 792 1169 718 1201 750 1169 b 867 1243 832 1169 867 1201 b 792 1318 867 1283 832 1318 b 718 1243 750 1318 718 1283 z m 497 1243 b 571 1169 497 1201 529 1169 b 646 1243 611 1169 646 1201 b 571 1318 646 1283 611 1318 b 497 1243 529 1318 497 1283 z "},"Ù":{"ha":1069,"x_min":0,"x_max":0,"o":"m 854 1039 l 854 290 b 683 97 854 119 768 97 b 514 288 599 97 514 119 l 514 1035 b 449 1042 485 1040 469 1042 b 22 713 224 1042 22 890 b 175 547 22 601 100 547 b 125 703 167 561 125 596 b 343 982 125 851 206 951 l 343 285 b 672 -10 343 179 389 -10 b 1007 286 958 -10 1007 182 l 1007 1039 z m 618 1389 l 500 1389 l 640 1126 l 717 1126 z "},"Ű":{"ha":1069,"x_min":0,"x_max":0,"o":"m 854 1039 l 854 290 b 683 97 854 119 768 97 b 514 288 599 97 514 119 l 514 1035 b 449 1042 485 1040 469 1042 b 22 713 224 1042 22 890 b 175 547 22 601 100 547 b 125 703 167 561 125 596 b 343 982 125 851 206 951 l 343 285 b 672 -10 343 179 389 -10 b 1007 286 958 -10 1007 182 l 1007 1039 z m 731 1126 l 807 1126 l 919 1389 l 801 1389 z m 550 1126 l 626 1126 l 739 1389 l 621 1389 z "},"V":{"ha":894,"x_min":0,"x_max":0,"o":"m 444 1036 b 385 1042 425 1039 406 1042 b 26 731 157 1042 26 899 b 182 547 26 585 107 547 b 117 742 140 601 117 663 b 307 963 117 853 158 963 l 514 0 l 668 0 l 901 1035 l 822 1035 l 629 111 z "},"W":{"ha":1383,"x_min":0,"x_max":0,"o":"m 444 1036 b 385 1042 425 1039 406 1042 b 26 731 157 1042 26 899 b 182 547 26 585 107 547 b 117 742 140 601 117 663 b 307 963 117 853 168 963 l 528 0 l 682 0 l 842 753 l 1008 0 l 1163 0 l 1382 1035 l 1303 1035 l 1124 111 l 925 1035 l 822 1035 l 643 111 z "},"X":{"ha":854,"x_min":0,"x_max":0,"o":"m 875 0 l 643 539 l 838 1035 l 772 1035 l 608 621 l 429 1039 b 372 1043 411 1042 392 1043 b 28 731 190 1043 28 917 b 176 560 28 592 83 560 b 125 721 151 585 125 636 b 294 992 125 846 192 964 l 507 500 l 308 0 l 374 0 l 543 418 l 725 0 z "},"Y":{"ha":844,"x_min":0,"x_max":0,"o":"m 647 0 l 647 428 l 869 1035 l 797 1035 l 618 506 l 417 1039 b 360 1042 399 1040 381 1042 b 28 728 156 1042 28 897 b 183 546 28 597 86 546 b 114 736 138 599 114 665 b 279 992 114 840 151 957 l 497 428 l 497 0 z "},"Ý":{"ha":844,"x_min":0,"x_max":0,"o":"m 647 0 l 647 428 l 869 1035 l 797 1035 l 618 506 l 417 1039 b 360 1042 399 1040 381 1042 b 28 728 156 1042 28 897 b 183 546 28 597 86 546 b 114 736 138 599 114 665 b 279 992 114 840 151 957 l 497 428 l 497 0 z m 568 1126 l 644 1126 l 757 1389 l 639 1389 z "},"Ÿ":{"ha":844,"x_min":0,"x_max":0,"o":"m 647 0 l 647 428 l 869 1035 l 797 1035 l 618 506 l 417 1039 b 360 1042 399 1040 381 1042 b 28 728 156 1042 28 897 b 183 546 28 597 86 546 b 114 736 138 599 114 665 b 279 992 114 840 151 957 l 497 428 l 497 0 z m 618 1243 b 692 1169 618 1201 650 1169 b 767 1243 732 1169 767 1201 b 692 1318 767 1283 732 1318 b 618 1243 650 1318 618 1283 z m 397 1243 b 471 1169 397 1201 429 1169 b 546 1243 511 1169 546 1201 b 471 1318 546 1283 511 1318 b 397 1243 429 1318 397 1283 z "},"Z":{"ha":679,"x_min":0,"x_max":0,"o":"m 554 99 b 394 69 544 75 472 69 b 213 74 326 69 254 74 l 668 1042 l 196 1042 b 43 940 101 1042 43 992 b 139 843 43 881 96 843 b 199 901 176 843 199 872 b 165 958 199 922 189 943 b 283 986 168 981 224 986 b 482 979 336 986 461 981 l 25 0 l 526 0 b 675 129 618 0 675 67 b 585 213 675 185 624 213 b 519 157 549 213 519 192 b 554 99 519 138 532 113 z "},"Ź":{"ha":679,"x_min":0,"x_max":0,"o":"m 554 99 b 394 69 544 75 472 69 b 213 74 326 69 254 74 l 668 1042 l 196 1042 b 43 940 101 1042 43 992 b 139 843 43 881 96 843 b 199 901 176 843 199 872 b 165 958 199 922 189 943 b 283 986 168 981 224 986 b 482 979 336 986 461 981 l 25 0 l 526 0 b 675 129 618 0 675 67 b 585 213 675 185 624 213 b 519 157 549 213 519 192 b 554 99 519 138 532 113 z m 335 1126 l 411 1126 l 524 1389 l 406 1389 z "},"Ž":{"ha":679,"x_min":0,"x_max":0,"o":"m 554 99 b 394 69 544 75 472 69 b 213 74 326 69 254 74 l 668 1042 l 196 1042 b 43 940 101 1042 43 992 b 139 843 43 881 96 843 b 199 901 176 843 199 872 b 165 958 199 922 189 943 b 283 986 168 981 224 986 b 482 979 336 986 461 981 l 25 0 l 526 0 b 675 129 618 0 675 67 b 585 213 675 185 624 213 b 519 157 549 213 519 192 b 554 99 519 138 532 113 z m 226 1378 l 360 1146 l 389 1146 l 619 1378 l 572 1378 l 376 1238 l 257 1378 z "},"Ż":{"ha":679,"x_min":0,"x_max":0,"o":"m 299 1232 b 378 1153 299 1188 333 1153 b 458 1232 422 1153 458 1188 b 378 1313 458 1276 422 1313 b 299 1232 333 1313 299 1276 z m 554 99 b 394 69 544 75 472 69 b 213 74 326 69 254 74 l 668 1042 l 196 1042 b 43 940 101 1042 43 992 b 139 843 43 881 96 843 b 199 901 176 843 199 872 b 165 958 199 922 189 943 b 283 986 168 981 224 986 b 482 979 336 986 461 981 l 25 0 l 526 0 b 675 129 618 0 675 67 b 585 213 675 185 624 213 b 519 157 549 213 519 192 b 554 99 519 138 532 113 z "},"a":{"ha":674,"x_min":0,"x_max":0,"o":"m 438 694 l 438 628 b 308 701 411 685 353 701 b 44 310 119 701 44 481 b 282 -8 44 76 169 -8 b 463 124 369 -8 435 51 b 597 -8 476 54 513 -8 b 790 249 658 -8 749 17 l 739 249 b 639 97 718 149 683 97 b 576 222 579 97 576 186 l 576 694 z m 317 97 b 190 319 236 97 190 161 b 356 625 190 449 236 625 b 438 565 397 625 425 594 l 438 249 b 317 97 438 164 374 97 z "},"á":{"ha":674,"x_min":0,"x_max":0,"o":"m 438 694 l 438 628 b 308 701 411 685 353 701 b 44 310 119 701 44 481 b 282 -8 44 76 169 -8 b 463 124 369 -8 435 51 b 597 -8 476 54 513 -8 b 790 249 658 -8 749 17 l 739 249 b 639 97 718 149 683 97 b 576 222 579 97 576 186 l 576 694 z m 317 97 b 190 319 236 97 190 161 b 356 625 190 449 236 625 b 438 565 397 625 425 594 l 438 249 b 317 97 438 164 374 97 z m 285 779 l 361 779 l 474 1042 l 356 1042 z "},"â":{"ha":674,"x_min":0,"x_max":0,"o":"m 438 694 l 438 628 b 308 701 411 685 353 701 b 44 310 119 701 44 481 b 282 -8 44 76 169 -8 b 463 124 369 -8 435 51 b 597 -8 476 54 513 -8 b 790 249 658 -8 749 17 l 739 249 b 639 97 718 149 683 97 b 576 222 579 97 576 186 l 576 694 z m 317 97 b 190 319 236 97 190 161 b 356 625 190 449 236 625 b 438 565 397 625 425 594 l 438 249 b 317 97 438 164 374 97 z m 529 779 l 396 1011 l 367 1011 l 136 779 l 183 779 l 379 919 l 499 779 z "},"´":{"ha":399,"x_min":0,"x_max":0,"o":"m -11 779 l 65 779 l 178 1042 l 60 1042 z "},"ä":{"ha":674,"x_min":0,"x_max":0,"o":"m 438 694 l 438 628 b 308 701 411 685 353 701 b 44 310 119 701 44 481 b 282 -8 44 76 169 -8 b 463 124 369 -8 435 51 b 597 -8 476 54 513 -8 b 790 249 658 -8 749 17 l 739 249 b 639 97 718 149 683 97 b 576 222 579 97 576 186 l 576 694 z m 317 97 b 190 319 236 97 190 161 b 356 625 190 449 236 625 b 438 565 397 625 425 594 l 438 249 b 317 97 438 164 374 97 z m 175 896 b 249 822 175 854 207 822 b 324 896 289 822 324 854 b 249 971 324 936 289 971 b 175 896 207 971 175 936 z m 396 896 b 469 822 396 854 428 822 b 544 896 510 822 544 854 b 469 971 544 936 510 971 b 396 896 428 971 396 936 z "},"æ":{"ha":857,"x_min":0,"x_max":0,"o":"m 99 593 l 146 553 b 297 635 176 599 214 635 b 424 479 383 635 424 561 b 415 397 424 456 421 419 b 329 403 396 400 369 403 b 64 219 176 403 64 354 b 285 -8 64 36 189 -8 b 454 124 396 -8 432 53 b 664 -8 503 31 579 -8 b 972 249 813 -8 928 113 l 928 249 b 708 97 879 140 796 97 b 550 294 603 97 563 158 b 844 515 738 310 844 388 b 660 701 844 663 751 701 b 501 638 594 701 539 671 b 310 701 433 682 369 701 b 99 593 211 701 151 663 z m 686 633 b 756 535 731 633 756 604 b 546 349 756 432 676 363 b 686 633 546 492 583 633 z m 421 331 b 311 97 419 258 415 97 b 210 213 253 97 210 140 b 365 333 210 297 269 333 b 421 331 383 333 401 333 z "},"à":{"ha":674,"x_min":0,"x_max":0,"o":"m 438 694 l 438 628 b 308 701 411 685 353 701 b 44 310 119 701 44 481 b 282 -8 44 76 169 -8 b 463 124 369 -8 435 51 b 597 -8 476 54 513 -8 b 790 249 658 -8 749 17 l 739 249 b 639 97 718 149 683 97 b 576 222 579 97 576 186 l 576 694 z m 317 97 b 190 319 236 97 190 161 b 356 625 190 449 236 625 b 438 565 397 625 425 594 l 438 249 b 317 97 438 164 374 97 z m 286 1042 l 168 1042 l 308 779 l 385 779 z "},"&":{"ha":893,"x_min":0,"x_max":0,"o":"m 876 574 b 756 514 863 532 808 514 b 649 521 722 514 690 521 b 432 353 517 521 438 451 l 442 351 b 560 414 460 393 500 414 b 663 406 590 414 628 408 b 424 85 657 228 606 85 b 204 314 274 85 204 181 b 394 581 204 447 272 553 b 239 797 250 617 239 753 b 394 992 239 896 294 992 b 506 892 449 992 506 963 b 449 792 506 839 475 803 b 522 754 474 765 499 754 b 599 868 568 754 599 797 b 386 1044 599 1004 488 1044 b 113 789 203 1044 113 911 b 238 579 113 710 150 635 b 50 289 126 533 50 435 b 353 -25 50 140 129 -25 b 703 406 574 -25 697 138 b 886 556 810 414 886 489 b 885 574 886 561 886 568 z "},"ą":{"ha":674,"x_min":0,"x_max":0,"o":"m 438 694 l 438 628 b 308 701 411 685 353 701 b 44 310 119 701 44 481 b 282 -8 44 76 169 -8 b 463 124 369 -8 435 51 b 575 -6 475 61 506 3 b 515 -136 536 -37 515 -89 b 650 -268 515 -204 558 -268 b 783 -182 722 -268 756 -214 l 778 -139 b 692 -200 754 -171 729 -200 b 601 -104 629 -200 601 -156 b 642 -3 601 -68 615 -29 b 790 249 696 13 757 68 l 739 249 b 639 97 718 149 683 97 b 576 222 579 97 576 186 l 576 694 z m 317 97 b 190 319 236 97 190 161 b 356 625 190 449 236 625 b 438 565 397 625 425 594 l 438 249 b 317 97 438 164 374 97 z "},"å":{"ha":674,"x_min":0,"x_max":0,"o":"m 438 694 l 438 628 b 308 701 411 685 353 701 b 44 310 119 701 44 481 b 282 -8 44 76 169 -8 b 463 124 369 -8 435 51 b 597 -8 476 54 513 -8 b 790 249 658 -8 749 17 l 739 249 b 639 97 718 149 683 97 b 576 222 579 97 576 186 l 576 694 z m 317 97 b 190 319 236 97 190 161 b 356 625 190 449 236 625 b 438 565 397 625 425 594 l 438 249 b 317 97 438 164 374 97 z m 368 771 b 469 875 438 771 469 819 b 361 990 469 932 435 990 b 253 883 292 990 253 939 b 368 771 253 828 292 771 z m 367 818 b 308 882 328 818 308 853 b 365 944 308 913 329 944 b 419 878 403 944 419 910 b 367 818 419 846 401 818 z "},"^":{"ha":585,"x_min":0,"x_max":0,"o":"m 304 779 l 171 1011 l 142 1011 l -89 779 l -42 779 l 154 919 l 274 779 z "},"~":{"ha":557,"x_min":0,"x_max":0,"o":"m 514 932 b 440 904 500 914 471 904 b 225 944 368 904 317 944 b 43 822 131 944 67 903 l 50 819 b 126 853 69 842 93 853 b 346 807 194 853 264 807 b 521 932 440 807 519 872 z "},"*":{"ha":550,"x_min":0,"x_max":0,"o":"m 239 1044 l 239 842 l 78 935 l 44 879 l 210 783 l 44 688 l 78 632 l 239 725 l 239 522 l 311 522 l 311 725 l 472 632 l 506 688 l 339 783 l 506 879 l 472 935 l 311 842 l 311 1044 z "},"@":{"ha":785,"x_min":0,"x_max":0,"o":"m 331 -53 b 614 99 503 -53 614 11 b 582 158 614 121 607 147 b 371 46 551 92 468 46 b 158 256 208 46 158 136 b 517 714 158 453 304 714 b 674 543 638 714 674 628 b 525 244 674 422 597 244 b 504 272 510 244 504 257 b 514 322 504 290 511 311 l 576 589 l 500 597 l 494 576 b 440 600 485 589 467 600 b 253 289 340 600 253 411 b 340 167 253 206 290 167 b 431 224 379 167 411 192 b 499 189 443 203 465 189 b 740 556 633 189 740 375 b 521 774 740 747 606 774 b 47 228 263 774 47 531 b 331 -53 47 14 200 -53 z m 419 274 b 367 239 407 254 392 239 b 325 311 333 239 325 285 b 454 554 325 382 381 554 b 483 533 467 554 476 544 l 424 300 b 419 274 421 292 419 282 z "},"ã":{"ha":674,"x_min":0,"x_max":0,"o":"m 438 694 l 438 628 b 308 701 411 685 353 701 b 44 310 119 701 44 481 b 282 -8 44 76 169 -8 b 463 124 369 -8 435 51 b 597 -8 476 54 513 -8 b 790 249 658 -8 749 17 l 739 249 b 639 97 718 149 683 97 b 576 222 579 97 576 186 l 576 694 z m 317 97 b 190 319 236 97 190 161 b 356 625 190 449 236 625 b 438 565 397 625 425 594 l 438 249 b 317 97 438 164 374 97 z m 564 924 b 490 896 550 906 521 896 b 275 936 418 896 367 936 b 93 814 181 936 117 894 l 100 811 b 176 844 119 833 143 844 b 396 799 244 844 314 799 b 571 924 490 799 569 864 z "},"b":{"ha":581,"x_min":0,"x_max":0,"o":"m 64 249 b 264 -8 64 56 149 -8 b 568 397 467 -8 568 186 b 336 697 568 638 435 697 b 204 643 276 697 235 675 l 204 972 l 65 953 z m 444 365 b 286 88 444 221 392 88 b 204 213 229 88 204 128 l 204 578 b 299 625 229 606 261 625 b 444 365 392 625 444 508 z "},"\\":{"ha":700,"x_min":0,"x_max":0,"o":"m 610 -347 l 679 -347 l 89 1042 l 19 1042 z "},"|":{"ha":271,"x_min":0,"x_max":0,"o":"m 172 1043 l 99 1043 l 99 -347 l 172 -347 z "},"{":{"ha":357,"x_min":0,"x_max":0,"o":"m 321 -262 b 279 -268 306 -264 292 -268 b 168 -131 193 -268 168 -208 b 243 256 168 1 243 142 b 215 353 243 290 236 324 b 243 450 236 382 243 415 b 168 836 243 564 168 704 b 279 974 168 914 193 974 b 321 968 292 974 306 969 l 321 1033 b 260 1042 301 1039 279 1042 b 89 840 129 1042 89 928 b 164 481 89 721 164 586 b 92 388 164 436 150 388 b 49 392 82 388 65 389 l 49 314 b 92 318 65 317 82 318 b 164 225 150 318 164 269 b 89 -135 164 119 89 -15 b 260 -336 89 -222 129 -336 b 321 -328 279 -336 301 -333 z "},"}":{"ha":357,"x_min":0,"x_max":0,"o":"m 38 -328 b 97 -336 57 -333 78 -336 b 268 -135 228 -336 268 -222 b 193 225 268 -15 193 119 b 265 318 193 269 207 318 b 308 314 275 318 292 317 l 308 392 b 265 388 292 389 275 388 b 193 481 207 388 193 436 b 268 840 193 586 268 721 b 97 1042 268 928 228 1042 b 36 1033 78 1042 56 1039 l 36 968 b 78 974 51 969 65 974 b 189 836 164 974 189 914 b 114 450 189 704 114 564 b 142 353 114 415 121 382 b 114 256 121 324 114 290 b 189 -131 114 142 189 1 b 78 -268 189 -208 164 -268 b 38 -262 65 -268 53 -264 z "},"[":{"ha":396,"x_min":0,"x_max":0,"o":"m 368 -261 l 200 -261 l 200 956 l 367 956 l 367 1042 l 99 1042 l 99 -347 l 368 -347 z "},"]":{"ha":396,"x_min":0,"x_max":0,"o":"m 28 -347 l 297 -347 l 297 1042 l 29 1042 l 29 956 l 196 956 l 196 -261 l 28 -261 z "},"˘":{"ha":599,"x_min":0,"x_max":0,"o":"m 286 976 b 140 829 285 878 213 829 b -4 976 68 829 -4 878 l -100 976 b 139 778 -100 844 19 778 b 378 976 258 778 378 844 z "},"¦":{"ha":271,"x_min":0,"x_max":0,"o":"m 99 308 l 99 -347 l 172 -347 l 172 308 z m 172 418 l 172 1043 l 99 1043 l 99 418 z "},"•":{"ha":351,"x_min":0,"x_max":0,"o":"m 61 371 b 175 257 61 307 111 257 b 290 371 239 257 290 307 b 175 486 290 435 239 486 b 61 371 111 486 61 435 z "},"c":{"ha":506,"x_min":0,"x_max":0,"o":"m 379 482 b 431 453 392 464 408 453 b 485 535 467 453 485 489 b 306 701 485 643 422 701 b 49 315 96 701 49 469 b 314 -8 49 75 186 -8 b 618 249 450 -8 574 113 l 571 249 b 360 97 524 146 457 97 b 196 333 269 97 196 139 b 326 628 196 465 226 628 b 403 554 375 628 403 597 b 379 482 403 528 394 494 z "},"ć":{"ha":506,"x_min":0,"x_max":0,"o":"m 379 482 b 431 453 392 464 408 453 b 485 535 467 453 485 489 b 306 701 485 643 422 701 b 49 315 96 701 49 469 b 314 -8 49 75 186 -8 b 618 249 450 -8 574 113 l 571 249 b 360 97 524 146 457 97 b 196 333 269 97 196 139 b 326 628 196 465 226 628 b 403 554 375 628 403 597 b 379 482 403 528 394 494 z m 288 779 l 364 779 l 476 1042 l 358 1042 z "},"ˇ":{"ha":408,"x_min":0,"x_max":0,"o":"m -76 1031 l 57 799 l 86 799 l 317 1031 l 269 1031 l 74 890 l -46 1031 z "},"č":{"ha":506,"x_min":0,"x_max":0,"o":"m 379 482 b 431 453 392 464 408 453 b 485 535 467 453 485 489 b 306 701 485 643 422 701 b 49 315 96 701 49 469 b 314 -8 49 75 186 -8 b 618 249 450 -8 574 113 l 571 249 b 360 97 524 146 457 97 b 196 333 269 97 196 139 b 326 628 196 465 226 628 b 403 554 375 628 403 597 b 379 482 403 528 394 494 z m 138 1031 l 271 799 l 300 799 l 531 1031 l 483 1031 l 288 890 l 168 1031 z "},"ç":{"ha":506,"x_min":0,"x_max":0,"o":"m 536 -178 b 432 -81 536 -115 501 -81 b 361 -92 411 -81 388 -85 l 378 0 b 618 249 488 29 581 133 l 571 249 b 360 97 524 146 457 97 b 196 333 269 97 196 139 b 326 628 196 465 226 628 b 403 554 375 628 403 597 b 379 482 403 528 394 494 b 431 453 392 464 408 453 b 485 535 467 453 485 489 b 306 701 485 643 422 701 b 49 315 96 701 49 469 b 317 -8 49 75 186 -8 l 294 -165 b 374 -135 310 -153 331 -135 b 457 -207 431 -135 457 -176 b 400 -261 457 -233 435 -261 b 288 -219 361 -261 324 -219 b 242 -264 261 -219 250 -242 b 399 -303 286 -285 328 -303 b 536 -178 469 -303 536 -258 z "},"ĉ":{"ha":506,"x_min":0,"x_max":0,"o":"m 379 482 b 431 453 392 464 408 453 b 485 535 467 453 485 489 b 306 701 485 643 422 701 b 49 315 96 701 49 469 b 314 -8 49 75 186 -8 b 618 249 450 -8 574 113 l 571 249 b 360 97 524 146 457 97 b 196 333 269 97 196 139 b 326 628 196 465 226 628 b 403 554 375 628 403 597 b 379 482 403 528 394 494 z m 482 779 l 349 1011 l 319 1011 l 89 779 l 136 779 l 332 919 l 451 779 z "},"¸":{"ha":315,"x_min":0,"x_max":0,"o":"m 350 -178 b 246 -81 350 -115 315 -81 b 175 -92 225 -81 201 -85 l 193 8 l 138 40 l 108 -165 b 188 -135 124 -153 144 -135 b 271 -207 244 -135 271 -176 b 214 -261 271 -233 249 -261 b 101 -219 175 -261 138 -219 b 56 -264 75 -219 64 -242 b 213 -303 100 -285 142 -303 b 350 -178 283 -303 350 -258 z "},"¢":{"ha":518,"x_min":0,"x_max":0,"o":"m 474 354 b 328 293 436 318 388 293 l 319 293 l 331 775 b 396 704 367 768 396 739 b 374 639 396 679 389 650 b 421 613 386 624 401 613 b 469 686 454 613 469 646 b 332 833 469 775 413 824 l 336 997 l 256 997 l 258 833 b 39 489 86 808 39 618 b 271 199 39 282 157 206 l 275 -37 l 313 -37 l 318 200 b 474 354 392 210 474 249 z m 171 506 b 260 758 171 600 197 715 l 268 300 b 171 506 192 322 171 393 z "},"ˆ":{"ha":407,"x_min":0,"x_max":0,"o":"m 235 779 l 101 1011 l 72 1011 l -158 779 l -111 779 l 85 919 l 204 779 z "},":":{"ha":349,"x_min":0,"x_max":0,"o":"m 82 536 b 174 444 82 485 122 444 b 267 536 224 444 267 485 b 174 629 267 586 224 629 b 82 536 122 629 82 586 z m 82 201 b 174 110 82 150 122 110 b 267 201 224 110 267 150 b 174 294 267 251 224 294 b 82 201 122 294 82 251 z "},",":{"ha":300,"x_min":0,"x_max":0,"o":"m 54 96 b 126 -31 54 -21 126 53 b 96 -142 126 -64 96 -104 b 115 -175 96 -153 99 -165 b 243 67 185 -140 243 -22 b 144 178 243 129 215 178 b 54 96 104 178 54 144 z "},"©":{"ha":769,"x_min":0,"x_max":0,"o":"m 189 467 b 383 253 189 351 271 253 b 563 347 451 253 524 289 l 515 379 b 392 311 485 332 433 311 b 250 468 300 311 250 390 b 393 611 250 539 300 611 b 515 521 449 611 503 581 l 567 540 b 396 672 539 631 468 672 b 189 467 294 672 189 592 z m 385 106 b 721 461 568 106 721 263 b 385 815 721 660 568 815 b 49 460 201 815 49 658 b 385 106 49 263 201 106 z m 85 460 b 388 785 85 643 222 785 b 689 460 551 785 689 643 b 388 135 689 276 551 135 b 85 460 222 135 85 276 z "},"¤":{"ha":635,"x_min":0,"x_max":0,"o":"m 63 683 l 142 604 b 101 479 117 569 101 526 b 142 356 101 433 117 390 l 64 278 l 114 228 l 192 306 b 319 264 228 279 272 264 b 444 304 367 264 410 279 l 521 228 l 571 278 l 494 354 b 536 481 521 390 536 433 b 494 608 536 528 521 572 l 571 685 l 521 735 l 443 657 b 319 697 408 682 365 697 b 193 656 272 697 229 682 l 115 733 z m 319 642 b 481 481 408 642 481 569 b 319 319 481 392 408 319 b 158 481 231 319 158 392 b 319 642 158 569 231 642 z "},"d":{"ha":674,"x_min":0,"x_max":0,"o":"m 438 953 l 438 628 b 308 701 411 685 353 701 b 44 310 119 701 44 481 b 282 -8 44 76 169 -8 b 463 124 369 -8 435 51 b 597 -8 476 54 513 -8 b 790 249 658 -8 749 17 l 739 249 b 639 97 718 149 683 97 b 576 222 579 97 576 186 l 576 972 z m 317 97 b 190 319 236 97 190 161 b 356 625 190 449 236 625 b 438 565 397 625 425 594 l 438 249 b 317 97 438 164 374 97 z "},"†":{"ha":569,"x_min":0,"x_max":0,"o":"m 333 1042 l 232 1042 l 232 594 l 29 594 l 29 467 l 232 467 l 232 -347 l 333 -347 l 333 467 l 542 467 l 542 594 l 333 594 z "},"‡":{"ha":593,"x_min":0,"x_max":0,"o":"m 344 1042 l 243 1042 l 243 594 l 40 594 l 40 467 l 243 467 l 243 268 l 40 268 l 40 140 l 243 140 l 243 -347 l 344 -347 l 344 140 l 553 140 l 553 268 l 344 268 l 344 467 l 553 467 l 553 594 l 344 594 z "},"đ":{"ha":674,"x_min":0,"x_max":0,"o":"m 438 953 l 438 847 l 390 847 l 390 799 l 438 799 l 438 628 b 308 701 411 685 353 701 b 44 310 119 701 44 481 b 282 -8 44 76 169 -8 b 463 124 369 -8 435 51 b 597 -8 476 54 513 -8 b 790 249 658 -8 749 17 l 739 249 b 639 97 718 149 683 97 b 576 222 579 97 576 186 l 576 799 l 683 799 l 683 847 l 576 847 l 576 972 z m 317 97 b 190 319 236 97 190 161 b 356 625 190 449 236 625 b 438 565 397 625 425 594 l 438 249 b 317 97 438 164 374 97 z "},"°":{"ha":440,"x_min":0,"x_max":0,"o":"m 224 975 b 58 749 118 975 58 879 b 218 519 58 590 125 519 b 382 753 339 519 382 644 b 224 975 382 863 347 975 z m 136 743 b 229 931 136 847 171 931 b 311 753 269 931 311 892 b 228 574 311 654 283 574 b 136 743 146 574 136 693 z "},"¨":{"ha":544,"x_min":0,"x_max":0,"o":"m -90 896 b -17 822 -90 854 -58 822 b 58 896 24 822 58 854 b -17 971 58 936 24 971 b -90 896 -58 971 -90 936 z m 131 896 b 204 822 131 854 163 822 b 279 896 244 822 279 854 b 204 971 279 936 244 971 b 131 896 163 971 131 936 z "},"÷":{"ha":581,"x_min":0,"x_max":0,"o":"m 199 599 b 290 507 199 547 239 507 b 383 599 340 507 383 547 b 290 692 383 649 340 692 b 199 599 239 692 199 649 z m 200 92 b 292 0 200 40 240 0 b 385 92 342 0 385 40 b 292 185 385 142 342 185 b 200 92 240 185 200 142 z m 533 396 l 47 396 l 47 299 l 533 299 z "},"$":{"ha":526,"x_min":0,"x_max":0,"o":"m 256 -37 l 275 -37 l 275 149 b 482 324 393 153 482 214 b 286 571 482 458 375 519 l 286 808 b 389 714 356 801 389 761 b 368 651 389 694 382 668 b 421 626 392 631 411 626 b 463 706 451 626 463 672 b 292 849 463 803 374 842 l 292 997 l 235 997 l 235 849 b 68 693 143 840 68 781 b 244 482 68 585 163 538 l 244 196 b 131 321 192 200 131 242 b 172 393 131 351 140 389 b 107 425 150 415 128 425 b 39 329 69 425 39 390 b 251 149 39 214 131 153 z m 367 308 b 279 197 367 246 331 204 l 279 454 b 367 308 331 418 367 374 z m 169 711 b 238 806 169 747 188 792 l 238 600 b 169 711 200 629 169 663 z "},"ı":{"ha":301,"x_min":0,"x_max":0,"o":"m 65 694 l 65 193 b 225 -8 65 103 97 -8 b 418 249 286 -8 376 17 l 367 249 b 267 97 346 149 311 97 b 204 222 207 97 204 186 l 204 694 z "},"e":{"ha":511,"x_min":0,"x_max":0,"o":"m 499 521 b 314 701 499 668 406 701 b 49 313 114 701 49 468 b 300 -8 49 75 172 -8 b 621 249 442 -8 574 113 l 576 249 b 357 97 528 140 444 97 b 197 278 278 97 211 131 b 499 521 385 299 499 392 z m 196 332 b 340 633 196 468 243 633 b 410 535 385 633 410 604 b 196 332 410 431 326 353 z "},"é":{"ha":511,"x_min":0,"x_max":0,"o":"m 499 521 b 314 701 499 668 406 701 b 49 313 114 701 49 468 b 300 -8 49 75 172 -8 b 621 249 442 -8 574 113 l 576 249 b 357 97 528 140 444 97 b 197 278 278 97 211 131 b 499 521 385 299 499 392 z m 196 332 b 340 633 196 468 243 633 b 410 535 385 633 410 604 b 196 332 410 431 326 353 z m 279 779 l 356 779 l 468 1042 l 350 1042 z "},"ê":{"ha":511,"x_min":0,"x_max":0,"o":"m 499 521 b 314 701 499 668 406 701 b 49 313 114 701 49 468 b 300 -8 49 75 172 -8 b 621 249 442 -8 574 113 l 576 249 b 357 97 528 140 444 97 b 197 278 278 97 211 131 b 499 521 385 299 499 392 z m 196 332 b 340 633 196 468 243 633 b 410 535 385 633 410 604 b 196 332 410 431 326 353 z m 501 779 l 368 1011 l 339 1011 l 108 779 l 156 779 l 351 919 l 471 779 z "},"ë":{"ha":511,"x_min":0,"x_max":0,"o":"m 499 521 b 314 701 499 668 406 701 b 49 313 114 701 49 468 b 300 -8 49 75 172 -8 b 621 249 442 -8 574 113 l 576 249 b 357 97 528 140 444 97 b 197 278 278 97 211 131 b 499 521 385 299 499 392 z m 196 332 b 340 633 196 468 243 633 b 410 535 385 633 410 604 b 196 332 410 431 326 353 z m 124 896 b 197 822 124 854 156 822 b 272 896 238 822 272 854 b 197 971 272 936 238 971 b 124 896 156 971 124 936 z m 344 896 b 418 822 344 854 376 822 b 493 896 458 822 493 854 b 418 971 493 936 458 971 b 344 896 376 971 344 936 z "},"è":{"ha":511,"x_min":0,"x_max":0,"o":"m 499 521 b 314 701 499 668 406 701 b 49 313 114 701 49 468 b 300 -8 49 75 172 -8 b 621 249 442 -8 574 113 l 576 249 b 357 97 528 140 444 97 b 197 278 278 97 211 131 b 499 521 385 299 499 392 z m 196 332 b 340 633 196 468 243 633 b 410 535 385 633 410 604 b 196 332 410 431 326 353 z m 246 1042 l 128 1042 l 268 779 l 344 779 z "},"…":{"ha":960,"x_min":0,"x_max":0,"o":"m 53 85 b 144 -7 53 33 93 -7 b 238 85 194 -7 238 33 b 144 178 238 135 194 178 b 53 85 93 178 53 135 z m 382 85 b 474 -7 382 33 422 -7 b 567 85 524 -7 567 33 b 474 178 567 135 524 178 b 382 85 422 178 382 135 z m 722 85 b 814 -7 722 33 763 -7 b 907 85 864 -7 907 33 b 814 178 907 135 864 178 b 722 85 763 178 722 135 z "},"—":{"ha":651,"x_min":0,"x_max":0,"o":"m 569 418 l 82 418 l 82 321 l 569 321 z "},"–":{"ha":526,"x_min":0,"x_max":0,"o":"m 444 418 l 82 418 l 82 321 l 444 321 z "},"ę":{"ha":513,"x_min":0,"x_max":0,"o":"m 500 531 b 319 701 500 661 407 701 b 50 307 111 701 50 468 b 300 -8 50 79 174 -8 b 361 -1 322 -8 342 -6 b 296 -137 318 -46 296 -99 b 432 -268 296 -196 343 -268 b 565 -194 503 -268 540 -224 l 560 -151 b 472 -200 536 -183 510 -200 b 381 -87 410 -200 381 -157 b 440 25 381 -57 386 -15 b 622 249 481 56 578 104 l 578 249 b 357 97 529 140 446 97 b 199 278 279 97 213 131 b 500 531 386 300 500 385 z m 197 332 b 343 633 197 469 244 633 b 411 540 386 633 411 601 b 197 332 411 429 331 354 z "},"=":{"ha":647,"x_min":0,"x_max":0,"o":"m 560 550 l 88 550 l 88 439 l 560 439 z m 560 296 l 88 296 l 88 185 l 560 185 z "},"ð":{"ha":674,"x_min":0,"x_max":0,"o":"m 322 826 l 331 785 l 428 811 b 438 704 435 781 438 746 l 438 628 b 308 701 411 685 353 701 b 44 310 119 701 44 481 b 282 -8 44 76 169 -8 b 463 124 369 -8 435 51 b 597 -8 476 54 513 -8 b 790 249 658 -8 749 17 l 739 249 b 639 97 718 149 683 97 b 576 222 579 97 576 186 l 576 663 b 539 842 576 743 564 797 l 619 864 l 611 906 l 511 878 b 379 972 481 911 438 939 l 331 972 b 415 851 372 929 399 893 z m 438 249 b 317 97 438 164 374 97 b 190 319 236 97 190 161 b 356 625 190 449 236 625 b 438 565 397 625 425 594 z "},"!":{"ha":332,"x_min":0,"x_max":0,"o":"m 200 321 l 243 972 l 88 972 l 126 321 z m 75 85 b 167 -7 75 33 115 -7 b 260 85 217 -7 260 33 b 167 178 260 135 217 178 b 75 85 115 178 75 135 z "},"¡":{"ha":314,"x_min":0,"x_max":0,"o":"m 122 307 l 79 -344 l 235 -344 l 196 307 z m 247 543 b 156 635 247 594 207 635 b 63 543 106 635 63 594 b 156 450 63 493 106 450 b 247 543 207 450 247 493 z "},"f":{"ha":332,"x_min":0,"x_max":0,"o":"m 203 761 b 304 953 203 872 217 953 b 406 833 371 953 394 907 l 460 833 b 267 1042 460 974 376 1042 b 64 800 149 1042 64 960 l 64 -19 b -117 -212 -24 -57 -117 -119 b 29 -347 -117 -299 -71 -347 b 203 -111 121 -347 203 -307 l 203 646 l 315 646 l 315 694 l 203 694 z m 1 -275 b -62 -208 -36 -275 -62 -244 b 64 -71 -62 -162 -19 -111 l 64 -114 b 1 -275 64 -212 54 -275 z "},"ﬀ":{"ha":672,"x_min":0,"x_max":0,"o":"m 274 1042 b 64 800 150 1042 64 960 l 64 -21 b -117 -224 -40 -69 -117 -135 b 31 -347 -117 -293 -71 -347 b 181 -257 94 -347 150 -325 b 347 -347 219 -312 267 -347 b 543 -111 435 -347 543 -307 l 543 646 l 656 646 l 656 694 l 543 694 l 543 761 b 644 953 543 872 557 953 b 746 833 711 953 735 907 l 800 833 b 608 1042 800 974 717 1042 b 435 942 532 1042 469 1007 b 274 1042 403 1015 344 1042 z m 203 29 l 203 646 l 404 646 l 404 76 b 203 29 340 64 269 49 z m 404 31 l 404 -114 b 310 -275 404 -251 358 -275 b 194 -211 267 -275 229 -256 b 203 -111 200 -183 203 -150 l 203 -17 b 404 31 260 0 328 17 z m 203 761 b 308 953 203 874 215 953 b 404 800 371 953 404 917 l 404 694 l 203 694 z m 1 -275 b -62 -208 -36 -275 -62 -244 b 64 -72 -62 -164 -21 -115 l 64 -114 b 1 -275 64 -212 54 -275 z "},"ﬃ":{"ha":967,"x_min":0,"x_max":0,"o":"m 543 761 b 667 978 543 878 565 978 b 763 911 707 978 751 963 b 724 847 739 907 724 874 b 796 783 724 808 760 783 b 867 869 831 783 867 804 b 657 1040 867 958 800 1040 b 440 926 546 1040 478 990 b 274 1042 411 1011 349 1042 b 64 800 150 1042 64 960 l 64 -21 b -117 -224 -40 -69 -117 -135 b 31 -347 -117 -293 -71 -347 b 181 -257 94 -347 150 -325 b 347 -347 219 -312 267 -347 b 543 -111 435 -347 543 -307 l 543 646 l 656 646 l 656 694 l 543 694 z m 203 29 l 203 646 l 404 646 l 404 76 b 203 29 340 64 269 49 z m 731 694 l 731 193 b 890 -8 731 103 763 -8 b 1083 249 951 -8 1042 17 l 1032 249 b 932 97 1011 149 976 97 b 869 222 872 97 869 186 l 869 694 z m 404 31 l 404 -114 b 310 -275 404 -251 358 -275 b 194 -211 267 -275 229 -256 b 203 -111 200 -183 203 -150 l 203 -17 b 404 31 260 0 328 17 z m 203 761 b 308 953 203 874 215 953 b 404 800 371 953 404 917 l 404 694 l 203 694 z m 1 -275 b -62 -208 -36 -275 -62 -244 b 64 -72 -62 -164 -21 -115 l 64 -114 b 1 -275 64 -212 54 -275 z "},"ﬄ":{"ha":974,"x_min":0,"x_max":0,"o":"m 543 761 b 654 953 543 878 556 953 b 739 946 700 953 718 949 l 739 193 b 899 -8 739 103 771 -8 b 1092 249 960 -8 1050 17 l 1040 249 b 940 97 1019 149 985 97 b 878 222 881 97 878 186 l 878 972 b 601 1040 779 1011 729 1040 b 432 946 508 1040 458 1000 b 274 1042 401 1015 343 1042 b 64 800 150 1042 64 960 l 64 -21 b -117 -224 -40 -69 -117 -135 b 31 -347 -117 -293 -71 -347 b 181 -257 94 -347 150 -325 b 347 -347 219 -312 267 -347 b 543 -111 435 -347 543 -307 l 543 646 l 656 646 l 656 694 l 543 694 z m 203 29 l 203 646 l 404 646 l 404 76 b 203 29 340 64 269 49 z m 404 31 l 404 -114 b 310 -275 404 -251 358 -275 b 194 -211 267 -275 229 -256 b 203 -111 200 -183 203 -150 l 203 -17 b 404 31 260 0 328 17 z m 203 761 b 308 953 203 874 215 953 b 404 800 371 953 404 917 l 404 694 l 203 694 z m 1 -275 b -62 -208 -36 -275 -62 -244 b 64 -72 -62 -164 -21 -115 l 64 -114 b 1 -275 64 -212 54 -275 z "},"ﬁ":{"ha":633,"x_min":0,"x_max":0,"o":"m 315 646 l 315 694 l 203 694 l 203 761 b 326 978 203 878 225 978 b 422 911 367 978 411 963 b 383 847 399 907 383 874 b 456 783 383 808 419 783 b 526 869 490 783 526 804 b 317 1040 526 958 460 1040 b 64 779 129 1040 64 899 l 64 -18 b -117 -221 -25 -56 -117 -118 b 31 -347 -117 -294 -71 -347 b 203 -111 128 -347 203 -299 l 203 646 z m 397 694 l 397 193 b 557 -8 397 103 429 -8 b 750 249 618 -8 708 17 l 699 249 b 599 97 678 149 643 97 b 536 222 539 97 536 186 l 536 694 z m 64 -114 b 1 -275 64 -212 54 -275 b -62 -208 -36 -275 -62 -244 b 64 -71 -62 -162 -19 -111 z "},"ﬂ":{"ha":633,"x_min":0,"x_max":0,"o":"m 203 761 b 314 953 203 878 215 953 b 399 946 360 953 378 949 l 399 193 b 558 -8 399 103 431 -8 b 751 249 619 -8 710 17 l 700 249 b 600 97 679 149 644 97 b 538 222 540 97 538 186 l 538 972 b 261 1040 439 1011 389 1040 b 64 779 81 1040 64 889 l 64 -19 b -117 -204 -22 -58 -117 -122 b 65 -347 -117 -303 -33 -347 b 203 -111 157 -347 203 -310 l 203 646 l 315 646 l 315 694 l 203 694 z m 3 -275 b -62 -208 -37 -275 -62 -244 b 64 -71 -62 -162 -19 -111 l 64 -114 b 3 -275 64 -210 54 -275 z "},"ƒ":{"ha":376,"x_min":0,"x_max":0,"o":"m 14 646 l 75 646 l 75 -19 b -106 -212 -12 -57 -106 -119 b 40 -347 -106 -299 -60 -347 b 214 -111 132 -347 214 -307 l 214 646 l 326 646 l 326 694 l 214 694 l 214 761 b 315 953 214 872 228 953 b 417 833 382 953 406 907 l 471 833 b 278 1042 471 974 388 1042 b 75 800 160 1042 75 960 l 75 694 l 14 694 z m 13 -275 b -51 -208 -25 -275 -51 -244 b 75 -71 -51 -162 -8 -111 l 75 -114 b 13 -275 75 -212 65 -275 z "},"g":{"ha":674,"x_min":0,"x_max":0,"o":"m 438 694 l 438 628 b 308 701 411 685 353 701 b 44 324 119 701 44 489 b 282 19 44 100 169 19 b 438 103 349 19 403 54 l 438 -17 b 256 -211 347 -54 256 -115 b 403 -347 256 -286 311 -347 b 576 -110 496 -347 576 -283 l 576 -21 b 790 249 700 17 761 51 l 739 249 b 576 29 719 93 671 60 l 576 694 z m 317 125 b 190 333 236 125 190 185 b 356 625 190 457 236 625 b 438 565 397 625 425 594 l 438 269 b 317 125 438 188 372 125 z m 376 -275 b 310 -206 335 -275 310 -247 b 438 -72 310 -154 346 -114 l 438 -169 b 376 -275 438 -235 426 -275 z "},"ğ":{"ha":674,"x_min":0,"x_max":0,"o":"m 438 694 l 438 628 b 308 701 411 685 353 701 b 44 324 119 701 44 489 b 282 19 44 100 169 19 b 438 103 349 19 403 54 l 438 -17 b 256 -211 347 -54 256 -115 b 403 -347 256 -286 311 -347 b 576 -110 496 -347 576 -283 l 576 -21 b 790 249 700 17 761 51 l 739 249 b 576 29 719 93 671 60 l 576 694 z m 317 125 b 190 333 236 125 190 185 b 356 625 190 457 236 625 b 438 565 397 625 425 594 l 438 276 b 317 125 438 192 374 125 z m 508 976 b 363 829 507 878 435 829 b 218 976 290 829 218 878 l 122 976 b 361 778 122 844 242 778 b 600 976 481 778 600 844 z m 376 -275 b 310 -206 335 -275 310 -247 b 438 -72 310 -154 346 -114 l 438 -169 b 376 -275 438 -235 426 -275 z "},"ß":{"ha":625,"x_min":0,"x_max":0,"o":"m 226 736 b 339 889 228 836 283 889 b 442 760 393 889 442 843 b 331 613 442 699 407 631 l 325 560 b 510 299 446 533 510 451 b 371 57 510 189 478 57 l 371 3 b 417 0 386 1 401 0 b 611 290 500 0 611 86 b 419 593 611 444 554 551 b 510 758 481 625 510 693 b 276 972 510 893 426 972 b 74 736 185 972 74 935 l 74 -347 l 226 -297 z "},"`":{"ha":279,"x_min":0,"x_max":0,"o":"m -60 1042 l -178 1042 l -37 779 l 39 779 z "},">":{"ha":499,"x_min":0,"x_max":0,"o":"m 79 519 l 383 353 l 79 219 l 79 140 l 461 313 l 461 388 l 79 596 z "},"«":{"ha":714,"x_min":0,"x_max":0,"o":"m 272 624 l 29 353 l 333 96 l 376 157 l 144 351 l 343 561 z m 561 624 l 318 353 l 622 96 l 665 157 l 433 351 l 632 561 z "},"»":{"ha":718,"x_min":0,"x_max":0,"o":"m 443 96 l 686 367 l 382 624 l 339 563 l 571 368 l 372 158 z m 154 96 l 397 367 l 93 624 l 50 563 l 282 368 l 83 158 z "},"‹":{"ha":425,"x_min":0,"x_max":0,"o":"m 272 624 l 29 353 l 333 96 l 376 157 l 144 351 l 343 561 z "},"›":{"ha":429,"x_min":0,"x_max":0,"o":"m 154 96 l 397 367 l 93 624 l 50 563 l 282 368 l 83 158 z "},"h":{"ha":649,"x_min":0,"x_max":0,"o":"m 64 953 l 64 0 l 203 0 l 203 444 b 328 596 229 553 271 596 b 417 446 375 596 417 565 b 413 204 417 408 413 239 b 575 -8 413 92 458 -8 b 765 249 633 -8 724 17 l 714 249 b 614 97 692 143 657 97 b 551 217 553 97 551 188 b 560 453 551 289 560 388 b 369 701 560 560 538 701 b 203 589 322 701 257 690 l 203 972 z "},"˝":{"ha":606,"x_min":0,"x_max":0,"o":"m 1 779 l 78 779 l 190 1042 l 72 1042 z m 182 779 l 258 779 l 371 1042 l 253 1042 z "},"-":{"ha":442,"x_min":0,"x_max":0,"o":"m 360 418 l 82 418 l 82 321 l 360 321 z "},"i":{"ha":301,"x_min":0,"x_max":0,"o":"m 65 694 l 65 193 b 225 -8 65 103 97 -8 b 418 249 286 -8 376 17 l 367 249 b 267 97 346 149 311 97 b 204 222 207 97 204 186 l 204 694 z m 40 894 b 132 803 40 843 81 803 b 225 894 182 803 225 843 b 132 988 225 944 182 988 b 40 894 81 988 40 944 z "},"í":{"ha":301,"x_min":0,"x_max":0,"o":"m 65 694 l 65 193 b 225 -8 65 103 97 -8 b 418 249 286 -8 376 17 l 367 249 b 267 97 346 149 311 97 b 204 222 207 97 204 186 l 204 694 z m 96 779 l 172 779 l 285 1042 l 167 1042 z "},"î":{"ha":301,"x_min":0,"x_max":0,"o":"m 65 694 l 65 193 b 225 -8 65 103 97 -8 b 418 249 286 -8 376 17 l 367 249 b 267 97 346 149 311 97 b 204 222 207 97 204 186 l 204 694 z m 340 779 l 207 1011 l 178 1011 l -53 779 l -6 779 l 190 919 l 310 779 z "},"ï":{"ha":301,"x_min":0,"x_max":0,"o":"m 65 694 l 65 193 b 225 -8 65 103 97 -8 b 418 249 286 -8 376 17 l 367 249 b 267 97 346 149 311 97 b 204 222 207 97 204 186 l 204 694 z m -50 896 b 24 822 -50 854 -18 822 b 99 896 64 822 99 854 b 24 971 99 936 64 971 b -50 896 -18 971 -50 936 z m 171 896 b 244 822 171 854 203 822 b 319 896 285 822 319 854 b 244 971 319 936 285 971 b 171 896 203 971 171 936 z "},"ì":{"ha":301,"x_min":0,"x_max":0,"o":"m 65 694 l 65 193 b 225 -8 65 103 97 -8 b 418 249 286 -8 376 17 l 367 249 b 267 97 346 149 311 97 b 204 222 207 97 204 186 l 204 694 z m 69 1042 l -49 1042 l 92 779 l 168 779 z "},"ĳ":{"ha":625,"x_min":0,"x_max":0,"o":"m 389 694 l 389 -17 b 207 -211 299 -54 207 -115 b 354 -347 207 -286 263 -347 b 528 -110 447 -347 528 -283 l 528 -21 b 742 249 651 17 713 51 l 690 249 b 528 29 671 93 622 60 l 528 694 z m 65 694 l 65 188 b 203 -8 65 96 92 -8 b 319 81 257 -8 319 17 b 317 106 319 90 318 97 b 265 97 306 101 279 97 b 204 222 204 97 204 179 l 204 694 z m 40 894 b 132 803 40 843 81 803 b 225 894 182 803 225 843 b 132 988 225 944 182 988 b 40 894 81 988 40 944 z m 364 894 b 456 803 364 843 404 803 b 549 894 506 803 549 843 b 456 988 549 944 506 988 b 364 894 404 988 364 944 z m 328 -275 b 261 -206 286 -275 261 -247 b 389 -72 261 -154 297 -114 l 389 -169 b 328 -275 389 -235 378 -275 z "},"j":{"ha":301,"x_min":0,"x_max":0,"o":"m 65 694 l 65 -17 b -117 -211 -25 -54 -117 -115 b 31 -347 -117 -286 -61 -347 b 204 -110 124 -347 204 -283 l 204 -21 b 418 249 328 17 389 51 l 367 249 b 204 29 347 93 299 60 l 204 694 z m 40 894 b 132 803 40 843 81 803 b 225 894 182 803 225 843 b 132 988 225 944 182 988 b 40 894 81 988 40 944 z m 4 -275 b -62 -206 -37 -275 -62 -247 b 65 -72 -62 -154 -26 -114 l 65 -169 b 4 -275 65 -235 54 -275 z "},"k":{"ha":635,"x_min":0,"x_max":0,"o":"m 64 953 l 64 0 l 203 0 l 203 294 b 317 401 231 374 268 401 b 404 279 363 401 404 376 b 403 150 404 261 403 165 b 560 -8 403 64 447 -8 b 753 249 617 -8 710 10 l 701 249 b 597 97 679 143 646 97 b 543 169 549 97 543 144 b 547 290 543 192 547 253 b 358 507 547 381 524 507 l 344 507 l 576 694 l 442 694 l 203 468 l 203 972 z "},"l":{"ha":300,"x_min":0,"x_max":0,"o":"m 65 953 l 65 193 b 225 -8 65 103 97 -8 b 418 249 286 -8 376 17 l 367 249 b 267 97 346 149 311 97 b 204 222 207 97 204 186 l 204 972 z "},"<":{"ha":499,"x_min":0,"x_max":0,"o":"m 419 596 l 38 388 l 38 313 l 419 140 l 419 219 l 115 353 l 419 519 z "},"¬":{"ha":629,"x_min":0,"x_max":0,"o":"m 543 418 l 57 418 l 57 321 l 433 321 l 433 71 l 546 71 z "},"ł":{"ha":300,"x_min":0,"x_max":0,"o":"m 65 953 l 65 488 l -19 425 l -7 365 l 65 418 l 65 193 b 225 -8 65 103 97 -8 b 418 249 286 -8 376 17 l 367 249 b 267 97 346 149 311 97 b 204 222 207 97 204 186 l 204 522 l 385 657 l 375 718 l 204 590 l 204 972 z "},"m":{"ha":963,"x_min":0,"x_max":0,"o":"m 64 694 l 64 0 l 203 0 l 203 444 b 313 596 228 547 254 596 b 390 464 382 596 390 529 l 390 0 l 529 0 l 529 444 b 638 596 544 553 581 596 b 726 446 685 596 726 565 b 722 204 726 408 722 239 b 885 -8 722 92 768 -8 b 1075 249 943 -8 1033 17 l 1024 249 b 924 97 1001 143 967 97 b 861 217 863 97 861 188 b 869 453 861 289 869 388 b 679 701 869 560 847 701 b 519 578 635 701 571 689 b 356 701 497 647 453 701 b 203 599 308 701 250 688 l 203 694 z "},"−":{"ha":650,"x_min":0,"x_max":0,"o":"m 568 418 l 82 418 l 82 321 l 568 321 z "},"µ":{"ha":631,"x_min":0,"x_max":0,"o":"m 394 694 l 394 249 b 286 97 394 153 339 97 b 203 222 238 97 203 132 l 203 694 l 64 694 l 64 -231 l 203 -197 l 203 -1 b 260 -8 221 -6 239 -8 b 419 122 322 -8 385 32 b 554 -8 433 54 469 -8 b 747 249 615 -8 706 17 l 696 249 b 596 97 675 149 640 97 b 533 222 536 97 533 186 l 533 694 z "},"×":{"ha":538,"x_min":0,"x_max":0,"o":"m 478 231 l 347 360 l 481 493 l 414 560 l 281 426 l 129 581 l 58 508 l 210 356 l 63 208 l 129 142 l 276 289 l 408 158 z "},"n":{"ha":649,"x_min":0,"x_max":0,"o":"m 64 694 l 64 0 l 203 0 l 203 444 b 328 596 229 553 271 596 b 417 446 375 596 417 565 b 413 204 417 408 413 239 b 575 -8 413 92 458 -8 b 765 249 633 -8 724 17 l 714 249 b 614 97 692 143 657 97 b 551 217 553 97 551 188 b 560 453 551 289 560 388 b 369 701 560 560 538 701 b 203 589 322 701 257 690 l 203 694 z "},"ń":{"ha":649,"x_min":0,"x_max":0,"o":"m 64 694 l 64 0 l 203 0 l 203 444 b 328 596 229 553 271 596 b 417 446 375 596 417 565 b 413 204 417 408 413 239 b 575 -8 413 92 458 -8 b 765 249 633 -8 724 17 l 714 249 b 614 97 692 143 657 97 b 551 217 553 97 551 188 b 560 453 551 289 560 388 b 369 701 560 560 538 701 b 203 589 322 701 257 690 l 203 694 z m 288 779 l 364 779 l 476 1042 l 358 1042 z "},"ñ":{"ha":649,"x_min":0,"x_max":0,"o":"m 64 694 l 64 0 l 203 0 l 203 444 b 328 596 229 553 271 596 b 417 446 375 596 417 565 b 413 204 417 408 413 239 b 575 -8 413 92 458 -8 b 765 249 633 -8 724 17 l 714 249 b 614 97 692 143 657 97 b 551 217 553 97 551 188 b 560 453 551 289 560 388 b 369 701 560 560 538 701 b 203 589 322 701 257 690 l 203 694 z m 560 924 b 486 896 546 906 517 896 b 271 936 414 896 363 936 b 89 814 176 936 113 894 l 96 811 b 172 844 115 833 139 844 b 392 799 240 844 310 799 b 567 924 486 799 565 864 z "},"#":{"ha":731,"x_min":0,"x_max":0,"o":"m 458 -37 l 508 -37 l 508 196 l 685 196 l 685 288 l 508 288 l 508 463 l 685 463 l 685 554 l 508 554 l 508 997 l 458 997 l 458 554 l 263 554 l 263 997 l 213 997 l 213 554 l 46 554 l 46 463 l 217 463 l 217 288 l 46 288 l 46 196 l 218 196 l 218 -37 l 263 -37 l 263 196 l 458 196 z m 263 463 l 458 463 l 458 288 l 263 288 z "},"o":{"ha":582,"x_min":0,"x_max":0,"o":"m 318 701 b 47 315 110 701 47 478 b 307 -8 47 76 183 -8 b 544 357 457 -8 544 129 b 543 414 544 376 543 396 b 756 528 628 428 719 468 l 735 565 b 544 482 689 518 621 482 l 536 482 b 318 701 518 606 464 701 z m 332 97 b 197 321 269 97 197 140 b 354 625 197 457 239 625 b 454 539 396 625 432 603 b 399 479 418 538 399 522 b 474 410 399 432 421 413 b 475 376 475 399 475 388 b 332 97 475 200 429 97 z "},"ó":{"ha":582,"x_min":0,"x_max":0,"o":"m 318 701 b 47 315 110 701 47 478 b 307 -8 47 76 183 -8 b 544 357 457 -8 544 129 b 543 414 544 376 543 396 b 756 528 628 428 719 468 l 735 565 b 544 482 689 518 621 482 l 536 482 b 318 701 518 606 464 701 z m 332 97 b 197 321 269 97 197 140 b 354 625 197 457 239 625 b 454 539 396 625 432 603 b 399 479 418 538 399 522 b 474 410 399 432 421 413 b 475 376 475 399 475 388 b 332 97 475 200 429 97 z m 290 779 l 367 779 l 479 1042 l 361 1042 z "},"ô":{"ha":582,"x_min":0,"x_max":0,"o":"m 318 701 b 47 315 110 701 47 478 b 307 -8 47 76 183 -8 b 544 357 457 -8 544 129 b 543 414 544 376 543 396 b 756 528 628 428 719 468 l 735 565 b 544 482 689 518 621 482 l 536 482 b 318 701 518 606 464 701 z m 332 97 b 197 321 269 97 197 140 b 354 625 197 457 239 625 b 454 539 396 625 432 603 b 399 479 418 538 399 522 b 474 410 399 432 421 413 b 475 376 475 399 475 388 b 332 97 475 200 429 97 z m 526 779 l 393 1011 l 364 1011 l 133 779 l 181 779 l 376 919 l 496 779 z "},"ö":{"ha":582,"x_min":0,"x_max":0,"o":"m 318 701 b 47 315 110 701 47 478 b 307 -8 47 76 183 -8 b 544 357 457 -8 544 129 b 543 414 544 376 543 396 b 756 528 628 428 719 468 l 735 565 b 544 482 689 518 621 482 l 536 482 b 318 701 518 606 464 701 z m 332 97 b 197 321 269 97 197 140 b 354 625 197 457 239 625 b 454 539 396 625 432 603 b 399 479 418 538 399 522 b 474 410 399 432 421 413 b 475 376 475 399 475 388 b 332 97 475 200 429 97 z m 150 896 b 224 822 150 854 182 822 b 299 896 264 822 299 854 b 224 971 299 936 264 971 b 150 896 182 971 150 936 z m 371 896 b 444 822 371 854 403 822 b 519 896 485 822 519 854 b 444 971 519 936 485 971 b 371 896 403 971 371 936 z "},"œ":{"ha":940,"x_min":0,"x_max":0,"o":"m 318 701 b 47 315 110 701 47 478 b 307 -8 47 76 183 -8 b 507 138 400 -8 468 44 b 729 -8 551 32 639 -8 b 1050 249 871 -8 1003 113 l 1006 249 b 786 97 957 140 874 97 b 626 278 707 97 640 131 b 928 521 814 299 928 392 b 743 701 928 668 835 701 b 524 542 633 701 564 631 b 318 701 497 635 439 701 z m 332 97 b 197 321 269 97 197 140 b 354 625 197 457 239 625 b 454 539 396 625 432 603 b 399 485 422 538 399 522 b 474 410 399 433 424 410 b 475 376 475 399 475 388 b 332 97 475 200 429 97 z m 625 332 b 769 633 625 468 672 633 b 839 535 814 633 839 604 b 625 332 839 431 756 353 z "},"˛":{"ha":404,"x_min":0,"x_max":0,"o":"m 168 7 b 94 -140 119 -39 94 -94 b 229 -268 94 -194 143 -268 b 363 -182 301 -268 335 -214 l 357 -139 b 271 -200 333 -171 308 -200 b 185 -106 213 -200 185 -154 b 251 7 185 -60 207 -12 z "},"ò":{"ha":582,"x_min":0,"x_max":0,"o":"m 318 701 b 47 315 110 701 47 478 b 307 -8 47 76 183 -8 b 544 357 457 -8 544 129 b 543 414 544 376 543 396 b 756 528 628 428 719 468 l 735 565 b 544 482 689 518 621 482 l 536 482 b 318 701 518 606 464 701 z m 332 97 b 197 321 269 97 197 140 b 354 625 197 457 239 625 b 454 539 396 625 432 603 b 399 479 418 538 399 522 b 474 410 399 432 421 413 b 475 376 475 399 475 388 b 332 97 475 200 429 97 z m 276 1042 l 158 1042 l 299 779 l 375 779 z "},"ő":{"ha":582,"x_min":0,"x_max":0,"o":"m 318 701 b 47 315 110 701 47 478 b 307 -8 47 76 183 -8 b 544 357 457 -8 544 129 b 543 414 544 376 543 396 b 756 528 628 428 719 468 l 735 565 b 544 482 689 518 621 482 l 536 482 b 318 701 518 606 464 701 z m 332 97 b 197 321 269 97 197 140 b 354 625 197 457 239 625 b 454 539 396 625 432 603 b 399 479 418 538 399 522 b 474 410 399 432 421 413 b 475 376 475 399 475 388 b 332 97 475 200 429 97 z m 199 779 l 275 779 l 388 1042 l 269 1042 z m 379 779 l 456 779 l 568 1042 l 450 1042 z "},"½":{"ha":931,"x_min":0,"x_max":0,"o":"m 613 1042 l 529 1042 l 186 0 l 269 0 z m 619 92 b 851 428 664 197 851 253 b 688 568 851 510 810 568 b 528 463 568 568 528 511 b 589 388 528 422 554 388 b 643 410 604 388 624 394 b 607 469 618 426 607 449 b 682 532 607 503 636 532 b 765 435 728 532 765 501 b 546 50 765 274 546 190 b 557 4 546 28 550 15 b 633 25 582 19 611 25 b 818 0 681 25 760 0 b 900 74 881 0 900 29 b 888 131 900 104 890 118 b 779 75 856 88 819 75 b 619 92 732 75 678 92 z m 181 982 b 33 924 139 940 69 924 l 31 889 l 107 889 l 107 421 l 181 421 z "},"¼":{"ha":917,"x_min":0,"x_max":0,"o":"m 629 1042 l 546 1042 l 203 0 l 286 0 z m 181 982 b 33 924 139 940 69 924 l 31 889 l 107 889 l 107 421 l 181 421 z m 750 551 l 750 250 l 592 250 b 669 463 611 319 669 385 b 582 563 669 528 615 563 b 603 472 589 547 603 532 b 536 207 603 379 544 275 l 750 207 l 750 0 l 832 0 l 832 207 l 879 207 l 883 250 l 832 250 l 832 563 z "},"¹":{"ha":271,"x_min":0,"x_max":0,"o":"m 185 1040 b 38 982 143 999 74 982 l 35 947 l 111 947 l 111 479 l 185 479 z "},"ª":{"ha":453,"x_min":0,"x_max":0,"o":"m 275 1028 l 275 997 b 206 1035 260 1025 229 1035 b 56 825 94 1035 56 915 b 188 647 56 696 126 647 b 283 711 232 647 265 675 b 353 647 289 669 308 647 b 407 711 382 647 406 663 b 385 708 399 708 390 708 b 351 776 360 708 351 736 l 351 1028 z m 211 707 b 138 833 171 707 138 738 b 231 992 138 900 160 992 b 275 963 251 992 267 978 l 275 792 b 211 707 275 744 243 707 z "},"º":{"ha":418,"x_min":0,"x_max":0,"o":"m 210 1036 b 54 824 88 1036 54 908 b 211 646 54 689 133 646 b 335 838 292 646 335 729 b 333 881 335 853 335 867 b 383 957 363 894 376 924 l 369 974 b 324 935 364 958 346 935 b 210 1036 307 997 271 1036 z m 229 704 b 136 826 165 704 136 742 b 222 994 136 897 161 994 b 281 951 246 994 267 983 b 256 915 267 947 256 935 b 293 874 256 889 264 874 b 294 849 293 865 294 857 b 229 704 294 760 267 704 z "},"ø":{"ha":582,"x_min":0,"x_max":0,"o":"m 350 -143 l 350 -4 b 544 357 474 21 544 151 b 543 414 544 376 543 396 b 756 528 628 428 719 468 l 735 565 b 544 482 689 518 621 482 l 536 482 b 368 697 521 590 476 676 l 368 840 l 296 840 l 296 700 b 47 315 106 685 47 471 b 278 -7 47 94 163 6 l 278 -143 z m 332 97 b 197 321 269 97 197 140 b 354 625 197 457 239 625 b 454 539 396 625 432 603 b 399 479 418 538 399 522 b 474 410 399 432 421 413 b 475 376 475 399 475 388 b 332 97 475 200 429 97 z "},"õ":{"ha":582,"x_min":0,"x_max":0,"o":"m 318 701 b 47 315 110 701 47 478 b 307 -8 47 76 183 -8 b 544 357 457 -8 544 129 b 543 414 544 376 543 396 b 756 528 628 428 719 468 l 735 565 b 544 482 689 518 621 482 l 536 482 b 318 701 518 606 464 701 z m 332 97 b 197 321 269 97 197 140 b 354 625 197 457 239 625 b 454 539 396 625 432 603 b 399 479 418 538 399 522 b 474 410 399 432 421 413 b 475 376 475 399 475 388 b 332 97 475 200 429 97 z m 567 924 b 493 896 553 906 524 896 b 278 936 421 896 369 936 b 96 814 183 936 119 894 l 103 811 b 179 844 122 833 146 844 b 399 799 247 844 317 799 b 574 924 493 799 572 864 z "},"p":{"ha":588,"x_min":0,"x_max":0,"o":"m 64 746 l 64 -347 l 204 -312 l 204 58 b 340 -8 238 17 279 -8 b 579 357 483 -8 579 128 b 349 701 579 593 478 701 b 204 639 286 701 239 675 l 204 746 z m 300 611 b 440 363 361 611 440 556 b 296 81 440 206 388 81 b 204 128 264 81 231 94 l 204 544 b 300 611 226 586 260 611 z "},"¶":{"ha":718,"x_min":0,"x_max":0,"o":"m 429 -112 l 429 400 b 524 422 463 404 497 413 l 524 -112 l 625 -112 l 625 714 b 310 1040 625 954 471 1040 b 31 749 117 1040 31 894 b 328 397 31 585 140 419 l 328 -112 z "},"(":{"ha":375,"x_min":0,"x_max":0,"o":"m 340 1042 b 53 347 150 940 53 633 b 340 -347 53 76 147 -175 l 371 -314 b 140 349 172 -115 140 181 b 357 1004 140 622 215 929 z "},")":{"ha":375,"x_min":0,"x_max":0,"o":"m 35 -347 b 322 347 225 -246 322 61 b 36 1042 322 618 228 869 l 4 1008 b 235 346 203 810 235 514 b 19 -310 235 72 161 -235 z "},"%":{"ha":853,"x_min":0,"x_max":0,"o":"m 640 1042 l 557 1042 l 214 0 l 297 0 z m 204 975 b 36 749 99 975 36 879 b 193 519 36 590 100 519 b 360 753 314 519 360 644 b 204 975 360 863 328 975 z m 114 743 b 210 931 114 847 151 931 b 289 753 250 931 289 892 b 203 574 289 654 258 574 b 114 743 121 574 114 693 z m 667 456 b 497 229 561 456 497 360 b 654 0 497 71 561 0 b 821 233 776 0 821 125 b 667 456 821 343 790 456 z m 576 224 b 672 411 576 328 613 411 b 751 233 713 411 751 372 b 664 54 751 135 721 54 b 576 224 582 54 576 174 z "},".":{"ha":290,"x_min":0,"x_max":0,"o":"m 53 85 b 144 -7 53 33 93 -7 b 238 85 194 -7 238 33 b 144 178 238 135 194 178 b 53 85 93 178 53 135 z "},"·":{"ha":351,"x_min":0,"x_max":0,"o":"m 61 371 b 175 257 61 307 111 257 b 290 371 239 257 290 307 b 175 486 290 435 239 486 b 61 371 111 486 61 435 z "},"‰":{"ha":1240,"x_min":0,"x_max":0,"o":"m 642 1042 l 558 1042 l 215 0 l 299 0 z m 206 975 b 38 749 100 975 38 879 b 194 519 38 590 101 519 b 361 753 315 519 361 644 b 206 975 361 863 329 975 z m 115 743 b 211 931 115 847 153 931 b 290 753 251 931 290 892 b 204 574 290 654 260 574 b 115 743 122 574 115 693 z m 668 456 b 499 229 563 456 499 360 b 656 0 499 71 563 0 b 822 233 778 0 822 125 b 668 456 822 343 792 456 z m 578 224 b 674 411 578 328 614 411 b 753 233 714 411 753 372 b 665 54 753 135 722 54 b 578 224 583 54 578 174 z m 1054 456 b 885 229 949 456 885 360 b 1042 0 885 71 949 0 b 1208 233 1164 0 1208 125 b 1054 456 1208 343 1178 456 z m 964 224 b 1060 411 964 328 1000 411 b 1139 233 1100 411 1139 372 b 1051 54 1139 135 1107 54 b 964 224 969 54 964 174 z "},"+":{"ha":597,"x_min":0,"x_max":0,"o":"m 554 440 l 357 440 l 357 610 l 242 610 l 242 440 l 43 440 l 43 343 l 242 343 l 242 144 l 357 144 l 357 343 l 554 343 z "},"±":{"ha":663,"x_min":0,"x_max":0,"o":"m 588 585 l 389 585 l 389 754 l 275 754 l 275 585 l 78 585 l 78 488 l 275 488 l 275 289 l 388 289 l 388 488 l 588 488 z m 585 204 l 74 204 l 74 107 l 585 107 z "},"q":{"ha":618,"x_min":0,"x_max":0,"o":"m 436 694 l 436 631 b 308 701 410 686 353 701 b 44 310 119 701 44 481 b 282 -8 44 76 169 -8 b 436 74 347 -8 401 25 l 436 -347 l 576 -312 l 576 694 z m 317 97 b 190 319 236 97 190 161 b 356 625 190 449 236 625 b 436 569 396 625 424 597 l 436 229 b 317 97 428 154 369 97 z "},"?":{"ha":576,"x_min":0,"x_max":0,"o":"m 544 758 b 281 972 544 878 458 972 b 32 779 97 972 32 867 b 167 632 32 682 103 632 b 256 690 206 632 240 651 b 139 800 175 703 139 760 b 267 911 139 867 201 911 b 414 760 339 911 414 871 b 217 361 414 586 217 514 b 221 322 217 349 218 336 l 285 322 b 544 758 294 510 544 558 z m 161 85 b 253 -7 161 33 201 -7 b 346 85 303 -7 346 33 b 253 178 346 135 303 178 b 161 85 201 178 161 135 z "},"¿":{"ha":574,"x_min":0,"x_max":0,"o":"m 42 -129 b 306 -343 42 -249 128 -343 b 554 -150 489 -343 554 -237 b 419 -3 554 -53 483 -3 b 331 -61 381 -3 346 -22 b 447 -171 411 -74 447 -131 b 319 -282 447 -237 385 -282 b 172 -131 247 -282 172 -242 b 369 268 172 43 369 115 b 365 307 369 281 368 293 l 301 307 b 42 -129 292 119 42 71 z m 425 544 b 333 636 425 596 385 636 b 240 544 283 636 240 596 b 333 451 240 494 283 451 b 425 544 385 451 425 494 z "},"\"":{"ha":460,"x_min":0,"x_max":0,"o":"m 57 779 l 133 779 l 204 1042 l 86 1042 z m 278 779 l 354 779 l 425 1042 l 307 1042 z "},"„":{"ha":604,"x_min":0,"x_max":0,"o":"m 54 96 b 126 -31 54 -21 126 53 b 96 -142 126 -64 96 -104 b 115 -175 96 -153 99 -165 b 243 67 185 -140 243 -22 b 144 178 243 129 215 178 b 54 96 104 178 54 144 z m 358 96 b 431 -31 358 -21 431 53 b 400 -142 431 -64 400 -104 b 419 -175 400 -153 403 -165 b 547 67 489 -140 547 -22 b 449 178 547 129 519 178 b 358 96 408 178 358 144 z "},"“":{"ha":590,"x_min":0,"x_max":0,"o":"m 240 768 b 168 894 240 885 168 811 b 199 1006 168 928 199 968 b 179 1039 199 1017 196 1029 b 51 797 110 1004 51 886 b 150 686 51 735 79 686 b 240 768 190 686 240 719 z m 542 768 b 469 894 542 885 469 811 b 500 1006 469 928 500 968 b 481 1039 500 1017 497 1029 b 353 797 411 1004 353 886 b 451 686 353 735 381 686 b 542 768 492 686 542 719 z "},"”":{"ha":586,"x_min":0,"x_max":0,"o":"m 350 957 b 422 831 350 840 422 914 b 392 719 422 797 392 757 b 411 686 392 708 394 696 b 539 928 481 721 539 839 b 440 1039 539 990 511 1039 b 350 957 400 1039 350 1006 z m 49 957 b 121 831 49 840 121 914 b 90 719 121 797 90 757 b 110 686 90 708 93 696 b 238 928 179 721 238 839 b 139 1039 238 990 210 1039 b 49 957 99 1039 49 1006 z "},"‘":{"ha":289,"x_min":0,"x_max":0,"o":"m 240 768 b 168 894 240 885 168 811 b 199 1006 168 928 199 968 b 179 1039 199 1017 196 1029 b 51 797 110 1004 51 886 b 150 686 51 735 79 686 b 240 768 190 686 240 719 z "},"’":{"ha":285,"x_min":0,"x_max":0,"o":"m 49 957 b 121 831 49 840 121 914 b 90 719 121 797 90 757 b 110 686 90 708 93 696 b 238 928 179 721 238 839 b 139 1039 238 990 210 1039 b 49 957 99 1039 49 1006 z "},"‚":{"ha":300,"x_min":0,"x_max":0,"o":"m 54 96 b 126 -31 54 -21 126 53 b 96 -142 126 -64 96 -104 b 115 -175 96 -153 99 -165 b 243 67 185 -140 243 -22 b 144 178 243 129 215 178 b 54 96 104 178 54 144 z "},"'":{"ha":239,"x_min":0,"x_max":0,"o":"m 57 779 l 133 779 l 204 1042 l 86 1042 z "},"r":{"ha":467,"x_min":0,"x_max":0,"o":"m 64 694 l 64 0 l 203 0 l 203 511 b 317 581 235 544 275 581 b 394 546 357 581 363 546 b 458 618 417 546 458 563 b 367 701 458 664 429 701 b 203 578 288 701 246 643 l 203 694 z "},"®":{"ha":769,"x_min":0,"x_max":0,"o":"m 385 110 b 721 465 568 110 721 267 b 385 819 721 664 568 819 b 49 464 201 819 49 663 b 385 110 49 267 201 110 z m 85 464 b 388 789 85 647 222 789 b 689 464 551 789 689 647 b 388 139 689 281 551 139 b 85 464 222 139 85 281 z m 257 267 l 307 267 l 307 438 l 404 438 l 490 265 l 542 274 l 454 447 b 533 554 503 461 533 497 b 394 671 533 636 481 671 l 258 671 z m 307 618 l 396 618 b 483 554 442 618 483 603 b 399 486 483 503 439 486 l 307 486 z "},"˚":{"ha":217,"x_min":0,"x_max":0,"o":"m -69 771 b 32 875 0 771 32 819 b -76 990 32 932 -3 990 b -185 883 -146 990 -185 939 b -69 771 -185 828 -146 771 z m -71 818 b -129 882 -110 818 -129 853 b -72 944 -129 913 -108 944 b -18 878 -35 944 -18 910 b -71 818 -18 846 -36 818 z "},"s":{"ha":475,"x_min":0,"x_max":0,"o":"m 540 249 b 456 183 515 228 486 204 b 340 738 454 325 428 385 l 200 710 b 83 299 186 574 132 436 b 33 197 56 283 33 246 b 240 -8 33 107 78 -8 b 433 92 300 -8 392 19 b 599 249 486 129 546 175 z m 308 193 b 211 96 308 125 269 96 b 99 199 150 96 113 133 b 136 179 110 185 122 179 b 181 233 158 179 181 199 b 150 294 181 264 167 283 b 231 589 178 394 219 486 b 308 193 282 347 308 307 z "},"ś":{"ha":475,"x_min":0,"x_max":0,"o":"m 540 249 b 456 183 515 228 486 204 b 340 738 454 325 428 385 l 200 710 b 83 299 186 574 132 436 b 33 197 56 283 33 246 b 240 -8 33 107 78 -8 b 433 92 300 -8 392 19 b 599 249 486 129 546 175 z m 308 193 b 211 96 308 125 269 96 b 99 199 150 96 113 133 b 136 179 110 185 122 179 b 181 233 158 179 181 199 b 150 294 181 264 167 283 b 231 589 178 394 219 486 b 308 193 282 347 308 307 z m 228 779 l 304 779 l 417 1042 l 299 1042 z "},"š":{"ha":475,"x_min":0,"x_max":0,"o":"m 540 249 b 456 183 515 228 486 204 b 340 738 454 325 428 385 l 200 710 b 83 299 186 574 132 436 b 33 197 56 283 33 246 b 240 -8 33 107 78 -8 b 433 92 300 -8 392 19 b 599 249 486 129 546 175 z m 308 193 b 211 96 308 125 269 96 b 99 199 150 96 113 133 b 136 179 110 185 122 179 b 181 233 158 179 181 199 b 150 294 181 264 167 283 b 231 589 178 394 219 486 b 308 193 282 347 308 307 z m 100 1031 l 233 799 l 263 799 l 493 1031 l 446 1031 l 250 890 l 131 1031 z "},"§":{"ha":721,"x_min":0,"x_max":0,"o":"m 606 889 b 408 1042 606 1038 447 1042 b 143 838 258 1042 143 978 b 164 740 143 800 150 769 b 60 582 101 711 60 653 b 449 113 60 365 449 351 b 314 -22 449 7 374 -22 b 169 129 238 -22 169 24 b 247 214 169 178 183 208 b 168 281 236 261 201 281 b 51 124 111 281 51 225 b 314 -75 51 -60 243 -75 b 575 140 478 -75 575 6 b 569 190 575 157 572 175 b 686 376 647 211 686 289 b 269 865 686 664 269 657 b 410 1004 269 940 322 1004 b 524 904 486 1004 524 956 b 492 828 524 875 513 842 b 546 806 513 810 531 806 b 606 889 586 806 606 838 z m 597 326 b 556 239 597 283 581 254 b 161 610 474 439 161 508 b 194 694 161 632 161 665 b 597 326 313 547 597 504 z "},";":{"ha":343,"x_min":0,"x_max":0,"o":"m 78 211 b 150 85 78 94 150 168 b 119 -26 150 51 119 11 b 139 -60 119 -37 122 -50 b 267 182 208 -25 267 93 b 168 293 267 244 239 293 b 78 211 128 293 78 260 z m 76 536 b 168 444 76 485 117 444 b 261 536 218 444 261 485 b 168 629 261 586 218 629 b 76 536 117 629 76 586 z "},"/":{"ha":700,"x_min":0,"x_max":0,"o":"m 681 1042 l 611 1042 l 21 -347 l 90 -347 z "}," ":{"ha":299,"x_min":0,"x_max":0,"o":""},"£":{"ha":656,"x_min":0,"x_max":0,"o":"m 543 0 b 626 129 596 0 626 49 b 625 164 626 140 626 151 b 268 81 471 63 386 118 l 281 467 b 332 461 297 463 314 461 b 507 586 426 461 506 526 l 500 586 b 426 558 486 568 457 558 b 283 590 375 558 335 578 l 297 1029 l 163 999 l 150 592 b 29 476 89 578 47 538 l 36 474 b 113 507 56 496 79 507 b 147 503 124 507 136 506 l 133 0 z "},"t":{"ha":328,"x_min":0,"x_max":0,"o":"m 65 886 l 65 694 l 18 694 l 18 646 l 65 646 l 65 193 b 229 -8 65 101 96 -8 b 446 249 293 -8 385 17 l 394 249 b 269 97 368 147 319 97 b 204 222 207 97 204 179 l 204 646 l 311 646 l 311 694 l 204 694 l 204 906 z "},"þ":{"ha":657,"x_min":0,"x_max":0,"o":"m 64 -347 l 204 -311 l 204 58 b 329 -8 238 19 281 -8 b 578 344 522 -8 578 190 b 346 701 578 600 476 701 b 201 636 283 701 236 675 b -11 972 185 844 83 915 l -43 972 b 64 674 42 885 64 810 z m 299 611 b 439 356 361 611 439 560 b 288 81 439 240 406 81 b 204 128 265 81 231 94 l 204 544 b 299 611 226 586 258 611 z "},"¾":{"ha":1106,"x_min":0,"x_max":0,"o":"m 792 1042 l 708 1042 l 365 0 l 449 0 z m 171 618 b 114 651 154 644 133 651 b 40 557 74 651 40 621 b 218 415 40 464 128 415 b 413 592 314 415 413 471 b 288 739 413 643 385 713 b 364 863 343 767 364 817 b 208 982 364 944 286 982 b 54 878 131 982 54 946 b 111 804 54 839 76 804 b 161 829 128 804 146 813 b 126 883 132 843 126 863 b 204 947 126 924 164 947 b 290 861 246 947 290 921 b 189 733 290 815 265 753 b 317 586 236 717 317 686 b 207 458 317 499 260 458 b 117 549 160 458 117 489 b 171 618 117 576 132 608 z m 942 551 l 942 250 l 783 250 b 861 463 803 319 861 385 b 774 563 861 528 807 563 b 794 472 781 547 794 532 b 728 207 794 379 736 275 l 942 207 l 942 0 l 1024 0 l 1024 207 l 1071 207 l 1075 250 l 1024 250 l 1024 563 z "},"³":{"ha":478,"x_min":0,"x_max":0,"o":"m 188 678 b 131 711 171 704 150 711 b 57 617 90 711 57 681 b 235 475 57 524 144 475 b 429 651 331 475 429 531 b 304 799 429 703 401 772 b 381 922 360 826 381 876 b 225 1042 381 1004 303 1042 b 71 938 147 1042 71 1006 b 128 864 71 899 93 864 b 178 889 144 864 163 872 b 143 943 149 903 143 922 b 221 1007 143 983 181 1007 b 307 921 263 1007 307 981 b 206 793 307 875 282 813 b 333 646 253 776 333 746 b 224 518 333 558 276 518 b 133 608 176 518 133 549 b 188 678 133 636 149 668 z "},"˜":{"ha":560,"x_min":0,"x_max":0,"o":"m 358 924 b 285 896 344 906 315 896 b 69 936 213 896 161 936 b -112 814 -25 936 -89 894 l -106 811 b -29 844 -86 833 -62 844 b 190 799 39 844 108 799 b 365 924 285 799 364 864 z "},"™":{"ha":672,"x_min":0,"x_max":0,"o":"m 379 601 l 411 815 l 449 601 l 493 601 l 535 818 l 558 601 l 607 601 l 576 908 l 529 908 l 483 665 l 439 908 l 399 908 l 354 601 z m 303 864 b 347 897 332 864 347 875 b 346 913 347 903 347 907 b 297 904 335 908 319 904 b 193 914 263 904 238 914 b 69 826 103 914 69 871 b 118 765 69 781 89 765 b 101 824 108 776 101 792 b 172 882 101 868 126 882 b 190 881 178 882 183 882 l 190 601 l 235 601 l 235 874 b 303 864 258 869 282 864 z "},"²":{"ha":478,"x_min":0,"x_max":0,"o":"m 149 564 b 381 900 193 669 381 725 b 217 1040 381 982 339 1040 b 57 935 97 1040 57 983 b 118 860 57 894 83 860 b 172 882 133 860 153 867 b 136 942 147 899 136 921 b 211 1004 136 975 165 1004 b 294 907 257 1004 294 974 b 75 522 294 746 75 663 b 88 476 75 500 82 489 b 163 497 113 492 140 497 b 347 472 210 497 289 472 b 429 546 410 472 429 501 b 417 603 429 576 419 590 b 308 547 385 560 349 547 b 149 564 261 547 207 564 z "},"u":{"ha":631,"x_min":0,"x_max":0,"o":"m 394 694 l 394 249 b 286 97 394 153 339 97 b 203 222 238 97 203 132 l 203 694 l 64 694 l 64 207 b 260 -8 64 49 151 -8 b 419 122 322 -8 385 32 b 554 -8 433 54 469 -8 b 747 249 615 -8 706 17 l 696 249 b 596 97 675 149 640 97 b 533 222 536 97 533 186 l 533 694 z "},"ú":{"ha":631,"x_min":0,"x_max":0,"o":"m 394 694 l 394 249 b 286 97 394 153 339 97 b 203 222 238 97 203 132 l 203 694 l 64 694 l 64 207 b 260 -8 64 49 151 -8 b 419 122 322 -8 385 32 b 554 -8 433 54 469 -8 b 747 249 615 -8 706 17 l 696 249 b 596 97 675 149 640 97 b 533 222 536 97 533 186 l 533 694 z m 249 779 l 325 779 l 438 1042 l 319 1042 z "},"û":{"ha":631,"x_min":0,"x_max":0,"o":"m 394 694 l 394 249 b 286 97 394 153 339 97 b 203 222 238 97 203 132 l 203 694 l 64 694 l 64 207 b 260 -8 64 49 151 -8 b 419 122 322 -8 385 32 b 554 -8 433 54 469 -8 b 747 249 615 -8 706 17 l 696 249 b 596 97 675 149 640 97 b 533 222 536 97 533 186 l 533 694 z m 503 779 l 369 1011 l 340 1011 l 110 779 l 157 779 l 353 919 l 472 779 z "},"ü":{"ha":631,"x_min":0,"x_max":0,"o":"m 394 694 l 394 249 b 286 97 394 153 339 97 b 203 222 238 97 203 132 l 203 694 l 64 694 l 64 207 b 260 -8 64 49 151 -8 b 419 122 322 -8 385 32 b 554 -8 433 54 469 -8 b 747 249 615 -8 706 17 l 696 249 b 596 97 675 149 640 97 b 533 222 536 97 533 186 l 533 694 z m 329 896 b 403 822 329 854 361 822 b 478 896 443 822 478 854 b 403 971 478 936 443 971 b 329 896 361 971 329 936 z m 108 896 b 182 822 108 854 140 822 b 257 896 222 822 257 854 b 182 971 257 936 222 971 b 108 896 140 971 108 936 z "},"ù":{"ha":631,"x_min":0,"x_max":0,"o":"m 394 694 l 394 249 b 286 97 394 153 339 97 b 203 222 238 97 203 132 l 203 694 l 64 694 l 64 207 b 260 -8 64 49 151 -8 b 419 122 322 -8 385 32 b 554 -8 433 54 469 -8 b 747 249 615 -8 706 17 l 696 249 b 596 97 675 149 640 97 b 533 222 536 97 533 186 l 533 694 z m 219 1042 l 101 1042 l 242 779 l 318 779 z "},"ű":{"ha":631,"x_min":0,"x_max":0,"o":"m 394 694 l 394 249 b 286 97 394 153 339 97 b 203 222 238 97 203 132 l 203 694 l 64 694 l 64 207 b 260 -8 64 49 151 -8 b 419 122 322 -8 385 32 b 554 -8 433 54 469 -8 b 747 249 615 -8 706 17 l 696 249 b 596 97 675 149 640 97 b 533 222 536 97 533 186 l 533 694 z m 344 779 l 421 779 l 533 1042 l 415 1042 z m 164 779 l 240 779 l 353 1042 l 235 1042 z "},"_":{"ha":608,"x_min":0,"x_max":0,"o":"m 547 97 l 61 97 l 61 0 l 547 0 z "},"­":{"ha":443,"x_min":0,"x_max":0,"o":"m 361 418 l 82 418 l 82 321 l 361 321 z "},"v":{"ha":554,"x_min":0,"x_max":0,"o":"m 511 468 b 394 724 511 656 458 724 b 324 653 349 724 324 689 b 390 579 324 618 346 579 b 426 590 399 579 418 581 b 439 444 435 550 439 496 b 283 97 439 281 397 97 b 203 222 215 97 203 161 l 203 694 l 64 694 l 64 182 b 254 -8 64 58 158 -8 b 511 468 446 -8 511 258 z "},"w":{"ha":865,"x_min":0,"x_max":0,"o":"m 64 694 l 64 207 b 260 -8 64 49 151 -8 b 410 100 317 -8 374 25 b 585 -8 442 29 513 -8 b 842 468 776 -8 842 258 b 725 724 842 656 789 724 b 654 653 679 724 654 689 b 721 579 654 618 676 579 b 757 590 729 579 749 581 b 769 444 765 550 769 496 b 614 97 769 281 728 97 b 533 222 546 97 533 161 l 533 694 l 394 694 l 394 249 b 286 97 394 153 339 97 b 203 222 238 97 203 132 l 203 694 z "},"x":{"ha":692,"x_min":0,"x_max":0,"o":"m 433 536 b 276 701 399 632 358 701 b 63 246 111 701 96 413 l 114 246 b 233 597 142 478 183 597 b 311 472 260 597 278 565 l 372 300 l 157 0 l 251 0 l 397 229 b 596 -8 458 63 513 -8 b 800 244 654 -8 783 28 l 758 244 b 650 97 753 175 704 97 b 539 247 603 97 572 157 l 511 321 b 657 640 604 449 657 542 b 561 778 657 728 615 778 b 488 706 518 778 488 746 b 564 632 488 661 524 632 b 593 638 574 632 583 633 b 594 614 594 631 594 622 b 489 382 594 542 540 453 z "},"y":{"ha":631,"x_min":0,"x_max":0,"o":"m 394 694 l 394 242 b 286 97 394 150 338 97 b 203 222 238 97 203 132 l 203 694 l 64 694 l 64 207 b 260 -8 64 49 151 -8 b 394 71 308 -8 358 17 l 394 -17 b 213 -211 304 -54 213 -115 b 360 -347 213 -286 268 -347 b 533 -110 453 -347 533 -283 l 533 -21 b 747 249 657 17 718 51 l 696 249 b 533 29 676 93 628 60 l 533 694 z m 333 -275 b 267 -206 292 -275 267 -247 b 394 -72 267 -154 303 -114 l 394 -169 b 333 -275 394 -235 383 -275 z "},"ý":{"ha":631,"x_min":0,"x_max":0,"o":"m 394 694 l 394 242 b 286 97 394 150 338 97 b 203 222 238 97 203 132 l 203 694 l 64 694 l 64 207 b 260 -8 64 49 151 -8 b 394 71 308 -8 358 17 l 394 -17 b 213 -211 304 -54 213 -115 b 360 -347 213 -286 268 -347 b 533 -110 453 -347 533 -283 l 533 -21 b 747 249 657 17 718 51 l 696 249 b 533 29 676 93 628 60 l 533 694 z m 253 779 l 329 779 l 442 1042 l 324 1042 z m 333 -275 b 267 -206 292 -275 267 -247 b 394 -72 267 -154 303 -114 l 394 -169 b 333 -275 394 -235 383 -275 z "},"ÿ":{"ha":631,"x_min":0,"x_max":0,"o":"m 394 694 l 394 249 b 286 97 394 153 339 97 b 203 222 238 97 203 132 l 203 694 l 64 694 l 64 207 b 260 -8 64 49 151 -8 b 394 71 308 -8 358 17 l 394 -17 b 213 -211 304 -54 213 -115 b 360 -347 213 -286 268 -347 b 533 -110 453 -347 533 -283 l 533 -21 b 747 249 657 17 718 51 l 696 249 b 533 29 676 93 628 60 l 533 694 z m 333 -275 b 267 -206 292 -275 267 -247 b 394 -72 267 -154 303 -114 l 394 -169 b 333 -275 394 -235 383 -275 z m 114 896 b 188 822 114 854 146 822 b 263 896 228 822 263 854 b 188 971 263 936 228 971 b 114 896 146 971 114 936 z m 335 896 b 408 822 335 854 367 822 b 483 896 449 822 483 854 b 408 971 483 936 449 971 b 335 896 367 971 335 936 z "},"¥":{"ha":696,"x_min":0,"x_max":0,"o":"m 94 267 l 94 218 l 267 218 l 267 0 l 417 0 l 417 218 l 631 218 l 631 267 l 417 267 l 417 378 l 632 378 l 632 426 l 417 426 l 646 1035 l 574 1035 l 388 503 l 185 1035 l 29 1035 l 267 426 l 94 426 l 94 378 l 267 378 l 267 267 z "},"z":{"ha":575,"x_min":0,"x_max":0,"o":"m 511 118 b 454 89 508 101 488 89 b 275 97 417 89 299 96 l 572 694 l 228 694 b 85 613 121 694 85 660 b 164 513 85 560 113 513 b 226 556 200 513 226 536 b 203 600 226 574 203 582 b 282 619 203 617 242 619 l 401 619 l 101 0 l 465 0 b 624 118 563 0 624 64 b 543 200 624 172 583 200 b 486 154 514 200 486 183 b 511 118 486 140 497 122 z "},"ź":{"ha":575,"x_min":0,"x_max":0,"o":"m 511 118 b 454 89 508 101 488 89 b 275 97 417 89 299 96 l 572 694 l 228 694 b 85 613 121 694 85 660 b 164 513 85 560 113 513 b 226 556 200 513 226 536 b 203 600 226 574 203 582 b 282 619 203 617 242 619 l 401 619 l 101 0 l 465 0 b 624 118 563 0 624 64 b 543 200 624 172 583 200 b 486 154 514 200 486 183 b 511 118 486 140 497 122 z m 296 779 l 372 779 l 485 1042 l 367 1042 z "},"ž":{"ha":575,"x_min":0,"x_max":0,"o":"m 511 118 b 454 89 508 101 488 89 b 275 97 417 89 299 96 l 572 694 l 228 694 b 85 613 121 694 85 660 b 164 513 85 560 113 513 b 226 556 200 513 226 536 b 203 600 226 574 203 582 b 282 619 203 617 242 619 l 401 619 l 101 0 l 465 0 b 624 118 563 0 624 64 b 543 200 624 172 583 200 b 486 154 514 200 486 183 b 511 118 486 140 497 122 z m 199 1031 l 332 799 l 361 799 l 592 1031 l 544 1031 l 349 890 l 229 1031 z "},"ż":{"ha":575,"x_min":0,"x_max":0,"o":"m 257 881 b 336 801 257 836 292 801 b 417 881 381 801 417 836 b 336 961 417 925 381 961 b 257 881 292 961 257 925 z m 511 118 b 454 89 508 101 488 89 b 275 97 417 89 299 96 l 572 694 l 228 694 b 85 613 121 694 85 660 b 164 513 85 560 113 513 b 226 556 200 513 226 536 b 203 600 226 574 203 582 b 282 619 203 617 242 619 l 401 619 l 101 0 l 465 0 b 624 118 563 0 624 64 b 543 200 624 172 583 200 b 486 154 514 200 486 183 b 511 118 486 140 497 122 z "}}}
